<?xml version="1.0" encoding="utf-8"?>
<!-- Generator: Adobe Illustrator 21.0.0, SVG Export Plug-In . SVG Version: 6.00 Build 0)  -->
<svg version="1.1" id="Layer_1" xmlns="http://www.w3.org/2000/svg" xmlns:xlink="http://www.w3.org/1999/xlink" x="0px" y="0px"
	 viewBox="0 0 820 600" style="enable-background:new 0 0 820 600;" xml:space="preserve">
<style type="text/css">
	.st0{fill:url(#SVGID_1_);}
	.st1{fill:#FEFEFE;}
	.st2{fill:#959290;}
	.st3{fill:#295776;}
</style>
<linearGradient id="SVGID_1_" gradientUnits="userSpaceOnUse" x1="55" y1="-58.2187" x2="765" y2="651.7812">
	<stop  offset="0" style="stop-color:#FFFFFF"/>
	<stop  offset="0.2636" style="stop-color:#FCFCFC"/>
	<stop  offset="0.4492" style="stop-color:#F3F3F3"/>
	<stop  offset="0.6104" style="stop-color:#E3E3E3"/>
	<stop  offset="0.7012" style="stop-color:#D7D7D7"/>
</linearGradient>
<rect x="0" y="-3.2" class="st0" width="820" height="600"/>
<g>
	<path class="st1" d="M242.6,315.5c0,11.3,0,22.5,0,33.8c0,2,0.3,1.7-1.7,2.5c-6.6,2.6-13.4,3.3-20.4,3.2c-4-0.1-8-0.5-11.9-1.6
		c-9.7-2.8-16.2-9.2-19.9-18.5c-1.9-4.9-2.9-10-3.3-15.2c-0.6-7.4-0.3-14.9,0.8-22.2c0.7-4.6,1.9-9.2,4-13.4
		c3.4-6.9,8.8-11.5,16.4-13.1c11.3-2.3,21.9-0.7,31.7,5.5c1.2,0.7,2.2,1.7,3.3,2.5c0.9,0.6,1.1,1.4,1.1,2.5
		C242.6,292.8,242.6,304.1,242.6,315.5z"/>
</g>
<path class="st2" d="M714.9,454.4c-0.7,0-1.4-0.1-2.2-0.1c-23.8,0-47.5,0-71.3,0c-0.4,0-0.8,0-1.3,0c-1.6,0-1.6-0.1-1.6-1.6
	c0-9.4,0-18.7,0-28.1c0-1.5,0-1.5,1.7-1.5c9.1,0,18.1,0,27.2,0c0.5,0,1,0,1.4,0c0.7,0,1-0.3,0.9-1c0-0.4,0-0.8,0-1.3
	c0-72.1,0-144.2,0-216.3c0-2.8,0.3-2.5-2.5-2.5c-8.8,0-17.5,0-26.3,0c-0.3,0-0.6,0-0.9,0c-1.6,0-1.6,0-1.6-1.6c0-9.2,0-18.5,0-27.7
	c0-2.2,0-2,2-2c19.1,0,38.2,0,57.2,0c5.7,0,11.4,0,17.1,0C714.9,265.2,714.9,359.8,714.9,454.4z"/>
<path class="st2" d="M105.1,312.3c0-46.3,0-92.6,0-138.9c0-3.1-0.1-2.7,2.7-2.7c23.8,0,47.6,0,71.4,0c0.2,0,0.4,0,0.5,0
	c2.1,0,2-0.1,2,2c0,9.1,0,18.2,0,27.4c0,0.1,0,0.1,0,0.2c0,1.8,0,1.8-1.8,1.8c-8.9,0-17.9,0-26.8,0c-0.4,0-0.7,0-1.1,0
	c-1.6,0-1.6,0-1.6,1.6c0,0.5,0,1.1,0,1.6c0,71.8,0,143.6,0,215.4c0,2.7-0.3,2.4,2.4,2.4c8.8,0,17.6,0,26.5,0c0.4,0,0.7,0,1.1,0
	c1.3,0,1.4,0,1.4,1.4c0,9.4,0,18.7,0,28.1c0,1.6,0,1.6-1.8,1.6c-15.8,0-31.7,0-47.5,0c-8.3,0-16.7,0-25,0c-0.5,0-1,0-1.4,0
	c-0.6,0-0.9-0.3-0.9-0.9c0-0.6,0-1.2,0-1.8C105.1,405.1,105.1,358.7,105.1,312.3z"/>
<path class="st3" d="M270.7,258c0-0.8,0-1.4,0-2.1c0-17.2,0-34.4,0-51.7c0-0.3,0-0.6,0-0.9c0-1.4,0-1.4,1.4-1.4
	c10.7,0,21.5,0,32.2,0c1.3,0,1.3,0,1.4,1.4c0,0.4,0,0.8,0,1.3c0,60.1,0,120.2,0,180.3c0,2.6,0.5,2-2,3.1c-7.8,3.2-16,5.3-24.3,6.8
	c-13.3,2.4-26.6,3.7-40.1,2.9c-18.5-1.1-34.4-8-46.6-22.4c-6.8-8.1-10.9-17.5-13.3-27.8c-2.4-10.2-2.9-20.6-2.3-31.1
	c0.4-8.2,1.5-16.2,3.8-24.1c2.5-8.6,6.2-16.6,12.1-23.4c7.2-8.4,16.4-13.5,27.1-16.1c8.2-2,16.5-2.6,24.8-1.8
	c8.2,0.8,16.1,2.9,23.7,6.2c0.6,0.2,1.1,0.5,1.7,0.7C270.2,257.9,270.4,257.9,270.7,258z M270.7,327c0-11.3,0-22.7,0-34
	c0-1-0.2-1.8-1.1-2.5c-1.1-0.8-2.1-1.7-3.3-2.5c-9.8-6.3-20.5-7.8-31.7-5.5c-7.6,1.6-13,6.2-16.4,13.1c-2.1,4.2-3.3,8.7-4,13.4
	c-1.1,7.4-1.4,14.8-0.8,22.2c0.4,5.2,1.4,10.3,3.3,15.2c3.7,9.3,10.2,15.7,19.9,18.5c3.9,1.1,7.9,1.6,11.9,1.6
	c7,0.1,13.9-0.6,20.4-3.2c2.1-0.8,1.7-0.5,1.7-2.5C270.7,349.6,270.7,338.3,270.7,327z"/>
<path class="st3" d="M329.1,355.8c1.6,0.7,3,1.3,4.4,1.9c10.1,4.4,20.7,7.3,31.6,8.8c8.8,1.2,17.7,1.3,26.6,0.4
	c3-0.3,6.1-0.9,8.9-2.2c2.7-1.2,4.9-3,5.4-6c0.9-4.7-0.5-8.6-4.4-11.1c-1.9-1.2-4-1.9-6.1-2.6c-11.3-3.7-22.7-7.4-33.8-11.5
	c-6.5-2.4-12.7-5.4-18.2-9.6c-8.2-6.2-12.7-14.5-13.9-24.7c-0.7-6-0.8-12,0.9-17.8c2.4-8.6,7.7-15.1,14.9-20.1
	c6.9-4.8,14.7-7.5,22.8-9.2c9.2-1.9,18.5-1.8,27.8-1.2c13.9,0.9,27.2,4.3,40.1,9.5c1.7,0.7,1.7,0.7,1.7,2.4c0,9.2,0,18.4,0,27.5
	c0,0.5,0.1,1.1-0.2,1.7c-1.8-0.7-3.7-1.3-5.5-2c-8-2.9-16.1-5.3-24.6-6.8c-8.6-1.5-17.3-2.2-26-1.3c-3.1,0.3-6.2,1-9.1,2.1
	c-1.6,0.7-3.1,1.5-4.5,2.6c-4.5,3.7-3.6,10.5,0.2,13.4c1.5,1.1,3.1,2,4.8,2.7c5.5,2.3,11.3,3.7,16.9,5.4c8.2,2.4,16.6,4.3,24.7,7.2
	c5.3,1.9,10.3,4.3,14.8,7.7c6.4,4.8,10.6,11.1,12.5,18.8c2.2,8.8,2.1,17.6-0.4,26.3c-3,10.4-9.5,18-18.8,23.3
	c-6.7,3.7-13.9,5.9-21.4,7.1c-9.4,1.6-18.9,1.7-28.3,1.1c-13.5-1-26.7-3.3-39.5-7.8c-1.3-0.5-3.1-0.6-3.8-1.7
	c-0.7-1-0.2-2.6-0.2-3.9c0-9.4,0-18.7,0-28.1C329.1,357.4,329.1,356.7,329.1,355.8z"/>
<path class="st3" d="M554.6,364.5c0.2,0.5,0.1,1.1,0.1,1.6c0,9.3,0,18.6,0,27.9c0,1.7,0,1.7-1.7,2.1c-6.2,1.6-12.5,2.7-18.9,3.2
	c-5.8,0.5-11.6,0.7-17.4,0.6c-8.4-0.2-16.7-1.3-24.6-4.4c-13.2-5.3-21.4-15-24.8-28.8c-1.3-5.1-1.8-10.3-1.8-15.5
	c0-44.9,0-89.8,0-134.6c0-0.1,0-0.2,0-0.4c0-1.6,0-1.6,1.6-1.6c10.6,0,21.1,0,31.7,0c1.7,0,1.7,0,1.7,1.8c0,12.2,0,24.4,0,36.5
	c0,2.4-0.3,2.1,2.1,2.2c14.3,0,28.7,0,43,0c2.3,0,2-0.2,2,2c0,8.9,0,17.9,0,26.8c0,0.4,0,0.7,0,1.1c0,0.6-0.3,0.8-0.9,0.8
	c-0.5,0-1,0-1.4,0c-13.9,0-27.8,0-41.8,0c-0.4,0-0.8,0-1.3,0c-1.8,0-1.8,0-1.8,1.8c0,19.3,0,38.6,0,58c0,3,0.3,6,1,8.9
	c1.6,7.5,6.3,11.7,13.8,13c4.2,0.7,8.5,0.7,12.7,0.5c8.5-0.4,17-1.4,25.3-3.4C553.6,364.6,554.1,364.4,554.6,364.5z"/>
<path class="st3" d="M618.8,282.9c0,26.2,0,52.4,0,78.6c0,2.4-0.4,2.2,2.2,2.2c5.3,0,10.7,0,16,0c1.6,0,1.6,0,1.6,1.5
	c0,9.7,0,19.3,0,29c0,1.4,0,1.4-1.5,1.4c-17.3,0-34.7,0-52,0c-1.5,0-1.6,0-1.6-1.6c0-8.9,0-17.9,0-26.8c0-43.8,0-87.6,0-131.4
	c0-2.7,0.4-2.3-2.3-2.3c-5.2,0-10.4,0-15.7,0c-2,0-1.9,0.2-1.9-1.8c0-9.4,0-18.8,0-28.3c0-1.6,0-1.6,1.5-1.6c17.3,0,34.7,0,52,0
	c1.9,0,1.6,0.1,1.6,1.9C618.8,230.2,618.8,256.5,618.8,282.9z"/>
</svg>
