<?xml version="1.0" encoding="utf-8"?>
<!-- Generator: Adobe Illustrator 21.0.0, SVG Export Plug-In . SVG Version: 6.00 Build 0)  -->
<svg version="1.1" id="Layer_1" xmlns="http://www.w3.org/2000/svg" xmlns:xlink="http://www.w3.org/1999/xlink" x="0px" y="0px"
	 viewBox="0 0 820 600" style="enable-background:new 0 0 820 600;" xml:space="preserve">
<style type="text/css">
	.st0{fill:url(#SVGID_1_);}
	.st1{fill:#451761;}
	.st2{fill:#42155F;}
	.st3{fill:#FCFCFD;}
	.st4{fill:#441761;}
	.st5{fill:url(#SVGID_2_);}
	.st6{fill:url(#SVGID_3_);}
	.st7{fill:url(#SVGID_4_);}
</style>
<linearGradient id="SVGID_1_" gradientUnits="userSpaceOnUse" x1="55" y1="822.2" x2="765" y2="112.2" gradientTransform="matrix(1 0 0 -1 0 764)">
	<stop  offset="0" style="stop-color:#FFFFFF"/>
	<stop  offset="0.2636" style="stop-color:#FCFCFC"/>
	<stop  offset="0.4492" style="stop-color:#F3F3F3"/>
	<stop  offset="0.6104" style="stop-color:#E3E3E3"/>
	<stop  offset="0.7012" style="stop-color:#D7D7D7"/>
</linearGradient>
<rect y="-3.2" class="st0" width="820" height="600"/>
<g>
	<path class="st1" d="M748.4,489c0,5.5-4.4,9.9-9.7,9.8c-5.1-0.1-9.3-4.5-9.3-9.8c0-5.4,4.6-10,9.8-9.8
		C744.3,479.3,748.4,483.6,748.4,489z M734.7,494.6c2.8,2.2,5.6,2.1,8.8-0.2c-2.5-0.4-3.3-2.4-5.2-3.9c0,2.3-0.4,4.1-2.9,3.4
		c-0.4-3,1-6.3-1.6-9.6C731.3,488.5,731.5,491.7,734.7,494.6z M733.9,483.8c1.5,0.1,2,0.1,2.5,0.1c3.8,0,7.9-0.4,5.7,5.8
		c-0.5,1.4,1.1,2.4,2,3.7c2.6-3.7,2.2-6.9-0.6-9.7C740.8,481,737.7,481.1,733.9,483.8z"/>
	<path class="st2" d="M356.2,349.2c-0.9,1-1.8,1.2-2.9,0.3c0.7-0.4,1.4-0.8,2.1-1.2C355.6,348.6,355.9,348.9,356.2,349.2z"/>
	<path class="st3" d="M734.7,494.6c-3.2-2.9-3.4-6.1-1-10.4c2.6,3.3,1.3,6.6,1.6,9.6C735.1,494,734.9,494.3,734.7,494.6z"/>
	<path class="st3" d="M735.4,493.8c2.5,0.7,2.9-1.1,2.9-3.4c2,1.6,2.8,3.6,5.2,3.9c-3.2,2.4-6,2.5-8.8,0.2
		C734.9,494.3,735.1,494,735.4,493.8z"/>
	<path class="st2" d="M353.4,315.3c12.6-10.1,26.3-18.8,37.9-30.1c9.5-9.2,18.1-19.1,24.3-30.9c13.5-25.6,9.9-49.1-10.6-69.7
		c-12.1-12.2-27-20.4-42-28.3C326.8,137.2,291.1,117,257.9,93c-10.4-7.5-20.3-15.6-28.7-25.5c-2.8-3.3-2-4.5,1.8-5.3
		c14.5-3.3,29.2-3,43.7-1.6c69,6.4,135.4,24.1,200.7,46.4c30.7,10.4,60.9,22.3,88.8,39.1c8.4,5.1,16.5,10.6,22.8,18.4
		c5.7,7.1,5.8,9.5,0,16.4c-8.3,9.9-18.9,17.3-29.5,24.5c-37.2,25.4-76.8,46.6-116.6,67.3c-27.3,14.2-54.9,27.7-82.3,41.6
		c-1.5,0.7-3,1.3-4.5,2C353.9,315.9,353.6,315.6,353.4,315.3z"/>
	<path class="st2" d="M265.5,357.8c1.2-12.1,3.2-24,5.5-35.8c7.1-36.1,17.8-70.9,36.7-102.7c11.7-19.7,25.9-37,44.7-50.4
		c3-2.1,5.2-2.2,8.4-0.5c13.8,7.4,27.4,15.1,38.1,26.9c14.9,16.4,16.9,34.2,6.3,53.7c-7.2,13.2-17,24.5-28.7,33.6
		c-33,25.8-65.9,51.9-103.1,71.8c-2.2,1.2-4.4,2.3-6.6,3.5C266.6,358,266.2,357.8,265.5,357.8z"/>
	<path class="st4" d="M517.8,485c-16,20.7-52.9,16.5-62.8-13c-4.3-12.9-4.6-25.9-0.5-38.8c9.5-30,44.2-34.7,62.5-18.1
		c0-6.7,0.1-13,0-19.2c-0.1-3.8-3-4.1-5.8-3.8c-4.3,0.6-5.5-1.2-5.1-5.3c0.4-4.3-1.3-10,0.9-12.5c2.6-2.9,8.5-0.7,12.9-1
		c3-0.1,6-0.2,9,0c7,0.5,10.1,3.9,10.1,11c0.1,19.8,0,39.7,0,59.5c0,9,0.2,18-0.1,27c-0.1,4.5,1.5,6.8,6.1,6.1
		c4-0.6,4.9,1.2,4.6,4.8c-0.4,4.4,1.8,10.2-0.9,13s-8.5,0.6-12.9,0.9c-1.7,0.1-3.3,0-5,0C521.8,495.8,519.7,494.1,517.8,485z
		 M517.5,451c-0.2-1.7-0.3-4-0.6-6.3c-1.8-10.9-9.1-18.8-18.2-19.7c-10-1.1-18.5,4-22.2,13.9c-3.5,9.2-3.3,18.6,0.7,27.7
		c3.6,8.2,10,12.8,19.1,12.5s15.2-5.1,18.7-13.3C516.9,461.3,517.4,456.5,517.5,451z"/>
	<path class="st4" d="M378.1,422c7.5-10.6,17-15.9,29.2-16.1c19.7-0.4,30.7,9.4,31.6,29.2c0.5,11.8,0.4,23.7,0.1,35.5
		c-0.1,5,1.5,7.3,6.5,6.6c3.5-0.4,4.8,0.8,4.5,4.4c-0.3,3.8-0.2,7.7,0,11.5c0.1,2.2-0.8,2.9-2.9,2.9c-6.7-0.1-13.3,0.2-20-0.1
		c-6.8-0.3-9.9-3.7-9.9-10.6c-0.1-12.7,0-25.3,0-38c0-1.8,0-3.7-0.1-5.5c-0.8-13.6-8.2-18.7-21.2-14.6c-10.2,3.2-17,13-17.4,26
		c-0.4,12.8-0.3,25.7-0.2,38.5c0,3.1-0.6,4.5-4.1,4.2c-4.5-0.3-9-0.3-13.5,0c-3.5,0.2-4.5-1-4.4-4.5c0.2-19.3,0-38.7,0.2-58
		c0.1-4.8-1-7.5-6.3-6.6c-3.4,0.5-4.9-0.7-4.5-4.3c0.5-4.8-2-11.1,1-13.9c2.6-2.4,8.9-0.7,13.5-0.8c0.8,0,1.7,0,2.5,0
		C374.7,407.8,376.4,409.3,378.1,422z"/>
	<path class="st1" d="M311.4,455.8c-8.7,0-17.3,0.2-26-0.1c-4.1-0.1-4.2,1.4-3.4,4.6c3.7,14.4,18.8,22,34.6,17.2
		c4.6-1.4,9-3.5,12.8-6.6c1.9-1.5,2.9-1.6,4.1,0.6c2,3.6,4.1,7.2,6.4,10.7c1.3,1.9,0.6,2.9-0.9,4.1c-26.8,21.1-72.3,13.5-79.6-25.1
		c-6.6-35,19.1-61.3,53.6-54.4c16.4,3.3,27.7,17.5,28.8,35.7c0.8,13.3,0.8,13.3-12.1,13.3C323.7,455.8,317.6,455.8,311.4,455.8z
		 M301,440.2c4.3,0,8.6,0,13,0c6.1,0,6.5-0.6,4.2-6.5c-3-7.7-9.6-11.6-18.2-10.6c-8,0.9-16.1,8-17.5,15c-0.5,2.3,0.8,2.1,2.1,2.1
		C290.1,440.2,295.5,440.2,301,440.2z"/>
	<path class="st1" d="M148.9,455.8c-8.5,0-17,0.2-25.5-0.1c-4.6-0.2-4.8,1.3-3.6,5.1c4.3,14.3,18.9,21.5,34.5,16.7
		c4.7-1.4,9-3.6,12.8-6.6c2-1.6,3-1.4,4.1,0.8c1.4,2.6,2.8,5.4,4.7,7.6c3.2,3.9,2.3,6.2-1.7,8.9c-21,14.3-49.7,12.3-66-4.8
		c-13.9-14.6-16.1-40.4-5-58.1c10.3-16.4,31.8-23.9,50.9-17.7c17.8,5.7,29.8,27.6,25.4,45.8c-0.7,2.7-2.3,2.3-4.1,2.3
		C166.6,455.9,157.7,455.8,148.9,455.8z M138.2,440.2c5,0,10-0.2,14.9,0.1c3.5,0.2,4.3-0.8,3.4-4.2c-2.4-8.4-8.4-13.2-17-13
		c-8.9,0.2-17.4,6.7-19.3,14.6c-0.7,2.8,0.9,2.6,2.6,2.6C128,440.1,133.1,440.2,138.2,440.2z"/>
	<path class="st1" d="M603.8,455.8c-8.5,0-17,0.2-25.5-0.1c-3.8-0.1-4.9,0.6-3.8,4.7c3.9,13.1,16.4,20.8,30.4,18.1
		c6.3-1.2,12.1-3.7,17.2-7.7c2-1.5,2.9-1.4,4.1,0.8c1.5,2.8,3,5.6,4.9,8.1c2.8,3.6,2.1,5.7-1.6,8.3c-21.5,15-51.5,12.6-67.5-5.7
		c-12.8-14.7-14.7-38.8-4.4-56.1c9.7-16.2,29-23.9,48.6-19.4c14.8,3.4,25.7,15.7,27.8,31.7c0.6,4.5,0.9,8.9,0.6,13.4
		c-0.2,2.8-1.1,3.9-4.2,3.8C621.5,455.7,612.6,455.8,603.8,455.8z M593.2,440.2c5,0,10-0.2,14.9,0.1c3.4,0.2,4.4-0.6,3.4-4.2
		c-2.4-8.4-8.4-13.2-17-13.1c-8.9,0.2-17.5,6.8-19.4,14.5c-0.6,2.7,0.8,2.7,2.6,2.6C582.9,440.1,588,440.2,593.2,440.2z"/>
	<path class="st4" d="M680.2,435.4c4.1-6.9,8.1-13.5,11.9-20.1c2.9-5.1,7.1-7.8,13.1-7.5c0.3,0,0.7,0,1,0
		c16.4-0.4,16.3-0.4,15.1,16.1c-0.2,2.5-1.1,3.3-3.3,2.9c-6-1.1-9.6,1.7-12.4,6.8c-2.6,4.8-5.7,9.4-9.1,13.7
		c-2.4,3.1-1.9,5.2,0.1,8.2c8.6,13,17,26.2,26.1,40.3c-8.3,0-15.9,0-23.4,0c-2.1,0-2.5-2-3.3-3.3c-5.2-8.2-10.4-16.5-15.8-25.2
		c-5.2,8.4-10.4,16.6-15.3,24.8c-1.6,2.7-3.3,4-6.7,3.9c-6.4-0.3-12.9-0.1-19.5-0.1c0-2.5,1.6-3.9,2.6-5.5
		c7.6-11.9,15.2-23.9,23-35.7c1.6-2.4,1.9-4.1,0.1-6.6c-3.5-4.8-7-9.8-9.9-15c-2.7-4.8-6.1-7.3-11.6-6.3c-3,0.5-4.2-0.6-4-3.8
		c0.3-4,0.2-8,0-12c-0.1-2.7,0.9-3.6,3.4-3.3c0.2,0,0.3,0,0.5,0c22.8,0.1,20-1.8,31.7,17.8C676.4,428.8,678.2,431.9,680.2,435.4z"/>
	<path class="st4" d="M241.3,433.2c-1.8,0-3.7-0.1-5.5,0c-2.9,0.3-5-0.3-4.5-3.9c0-0.2-0.1-0.3-0.1-0.5c-1-4.1-5.2-6.1-12.4-5.8
		c-6.3,0.2-10.4,2.7-11,6.6c-0.5,3.3,1.3,5.3,3.8,7c4.3,2.9,9.3,4.4,14.1,6.2c5.4,2.1,10.9,4.1,15.9,7.2
		c8.2,5.1,13.1,12.1,12.6,22.2c-0.6,9.9-5.7,16.8-14.3,21.3c-16.2,8.4-41.8,4-54.2-9.3c-1.3-1.4-2.1-2.5-0.5-4.2
		c0.5-0.5,0.8-1.1,1.2-1.6c2.5-3.3,4.3-8.3,7.6-9.6c3.1-1.1,5.9,4.2,9.3,6.1c6.7,3.9,13.5,6.5,21.4,5c3.7-0.7,6.6-2.5,7.4-6.4
		c0.8-4-1.9-6.3-5-7.8c-6.4-3.1-13-5.8-19.6-8.7c-4.3-1.9-8.3-4.1-12-7c-14.3-11.3-12.5-32.1,3.9-39.9c13.8-6.6,28.2-6.1,42.1,0.1
		c8.1,3.6,11.4,11.7,9.7,21c-0.3,1.5-0.8,1.9-2.2,1.9C246.3,433.1,243.8,433.2,241.3,433.2z"/>
	<linearGradient id="SVGID_2_" gradientUnits="userSpaceOnUse" x1="474.0273" y1="451.9832" x2="517.5" y2="451.9832">
		<stop  offset="0" style="stop-color:#FFFFFF"/>
		<stop  offset="1" style="stop-color:#D6D6D6"/>
	</linearGradient>
	<path class="st5" d="M517.5,451c-0.2,5.5-0.6,10.3-2.5,14.8c-3.5,8.2-9.7,13-18.7,13.3c-9.2,0.3-15.5-4.3-19.1-12.5
		c-4-9.1-4.2-18.4-0.7-27.7c3.7-9.9,12.2-15,22.2-13.9c9.1,1,16.4,8.8,18.2,19.7C517.3,447,517.4,449.4,517.5,451z"/>
	<linearGradient id="SVGID_3_" gradientUnits="userSpaceOnUse" x1="282.3904" y1="431.5774" x2="319.4945" y2="431.5774">
		<stop  offset="0" style="stop-color:#FFFFFF"/>
		<stop  offset="1" style="stop-color:#D6D6D6"/>
	</linearGradient>
	<path class="st6" d="M301,440.2c-5.5,0-11,0-16.4,0c-1.3,0-2.6,0.3-2.1-2.1c1.4-7,9.4-14.1,17.5-15c8.6-1,15.2,2.8,18.2,10.6
		c2.3,5.9,1.9,6.5-4.2,6.5C309.6,440.2,305.3,440.2,301,440.2z"/>
	<path class="st3" d="M138.2,440.2c-5.1,0-10.3,0-15.4,0c-1.8,0-3.3,0.2-2.6-2.6c1.9-7.9,10.4-14.4,19.3-14.6
		c8.7-0.2,14.7,4.5,17,13c0.9,3.4,0.1,4.4-3.4,4.2C148.2,440,143.2,440.2,138.2,440.2z"/>
	<linearGradient id="SVGID_4_" gradientUnits="userSpaceOnUse" x1="575.0523" y1="431.751" x2="611.969" y2="431.751">
		<stop  offset="0" style="stop-color:#FFFFFF"/>
		<stop  offset="1" style="stop-color:#D6D6D6"/>
	</linearGradient>
	<path class="st7" d="M593.2,440.2c-5.1,0-10.3,0-15.4,0c-1.9,0-3.2,0-2.6-2.6c1.8-7.8,10.5-14.4,19.4-14.5
		c8.6-0.2,14.6,4.6,17,13.1c1,3.5,0,4.3-3.4,4.2C603.1,440,598.1,440.2,593.2,440.2z"/>
</g>
</svg>
