<?xml version="1.0" encoding="utf-8"?>
<!-- Generator: Adobe Illustrator 21.0.0, SVG Export Plug-In . SVG Version: 6.00 Build 0)  -->
<svg version="1.1" id="Layer_1" xmlns="http://www.w3.org/2000/svg" xmlns:xlink="http://www.w3.org/1999/xlink" x="0px" y="0px"
	 viewBox="0 0 820 600" style="enable-background:new 0 0 820 600;" xml:space="preserve">
<style type="text/css">
	.st0{fill:url(#SVGID_1_);}
	.st1{fill:#10346D;}
	.st2{fill:#C61925;}
	.st3{fill:#F6F8F7;}
</style>
<linearGradient id="SVGID_1_" gradientUnits="userSpaceOnUse" x1="55" y1="-222.2" x2="765" y2="487.8" gradientTransform="matrix(1 0 0 1 0 164)">
	<stop  offset="0" style="stop-color:#FFFFFF"/>
	<stop  offset="0.2636" style="stop-color:#FCFCFC"/>
	<stop  offset="0.4492" style="stop-color:#F3F3F3"/>
	<stop  offset="0.6104" style="stop-color:#E3E3E3"/>
	<stop  offset="0.7012" style="stop-color:#D7D7D7"/>
</linearGradient>
<rect y="-3.2" class="st0" width="820" height="600"/>
<g>
	<path class="st1" d="M765.7,223.4c0,35.8,0,71.6,0,107.4c-121.7,0-243.4,0.1-365.1,0.1c-67.8,0-135.5-0.1-203.3-0.2
		c0-13.3-0.1-26.5,0-39.8c0-3.4-0.3-6.5-3.3-8.6c-15.1-10.3-20.7-24.6-17.5-42.4c0.8-4.5-1.5-5.4-5.6-5.2c-7.8,0.3-15.7,0.3-23.5,0
		c-4.8-0.2-7,1.1-6.4,6.3c0.2,2.2,0.7,6.8-1.4,6.4c-8.6-1.8-13.1,6.3-20.9,7.3c-15,1.9-24.4,12.3-27.9,26.9
		c-3.3,13.6,0.9,25.5,12,33.9c5.8,4.4,8,8.8,6.3,15.6c-14.4,0-28.7,0-43.1,0c-0.1-31.7-0.3-63.5-0.3-95.2c0-17.7,4.4-22.1,22-22.1
		c218.4,0,436.7,0.1,655.1-0.2C752.4,213.4,760.1,215.2,765.7,223.4z M279.6,281.7c-0.6,0.2-1.1,0.3-1.7,0.5
		c-7.3-9.9-15.5-19.3-21.5-30c-6.9-12.2-16.4-15.9-29.3-13.7c-1.7,0.3-4-0.8-5,1.5c-1,2.3,0.9,3.5,2.3,4.7c4.1,3.5,5,7.9,4.9,13.1
		c-0.2,16.3-0.1,32.5-0.1,48.8c0,3.9,0.2,7.8-5.3,8.4c-1.8,0.2-3,1.5-2.5,3.4c0.4,1.5,1.8,1.7,3.3,1.7c6.8,0,13.6,0,20.3,0
		c1.6,0,3.4,0,3.6-2.2c0.1-2-0.9-2.9-2.9-3.1c-2.9-0.3-5.5-1.6-5.6-4.8c-0.1-14.9-0.1-29.9-0.1-46.9c15,19.9,28.5,37.9,41.9,55.9
		c1.7,2.3,3.5,4.4,6.6,3.4c3.4-1,1.8-4.1,1.8-6.2c0.1-20.9,0.1-41.7,0.1-62.6c0-4-1-8.5,5-9.3c1.6-0.2,2.2-1.5,2.1-3
		c-0.2-2.1-1.6-2.5-3.4-2.5c-6.5,0-13,0-19.5,0c-1.7,0-3.3,0.3-3.4,2.5c-0.1,2,1,3,2.9,3c3.2,0.2,5.5,1.8,5.5,4.8
		C279.7,259.9,279.6,270.8,279.6,281.7z M668.1,265.6c-16.4-6.1-27.8-0.4-32,15.8c-2.4,9.3-2.4,18.8,1.5,27.8
		c3.7,8.7,11.8,14.4,19.8,12c8.5-2.5,16.7-0.6,25-1.2c1.3-0.1,2.7,0,4.1-0.1c2.9-0.3,4.4-2.4,2-4.1c-4.9-3.4-3.8-8-3.8-12.4
		c-0.1-15.4,0-30.8,0-46.3c0-20.1,0-20.1-20-18.7c-0.3,0-0.5,0-0.8,0c-1.5,0.1-3.4-0.2-3.8,2.1c-0.3,2,0.7,3.1,2.7,3.2
		c5.4,0.3,5.5,4,5.4,8C668,256.2,668.1,260.5,668.1,265.6z M558,292.7c-2.1-5.8-4.3-11.5-6.2-17.4c-0.5-1.5-1.1-3.3-0.6-4.6
		c2.1-6.6,2.2-6.6-4.9-6.6c-2.4,0-4.9,0-7.3,0c-9.9,0-9.9,0-5.6,8.9c0.7,1.5,1.2,3,1.7,4.5c4.8,12.9,9.5,25.9,14.3,38.8
		c0.9,2.4,1.1,5.5,5,5.3c3.7-0.2,3.9-3.1,4.8-5.6c2.9-7.7,5.7-15.4,9.5-25.4c2.8,8.9,4.5,15.6,7,22c1.2,3.2,0,8.6,5.3,8.9
		c5.4,0.3,4.7-5.1,5.9-8.3c5-13.4,9.3-27.1,14.7-40.3c3.6-8.9,4.3-8.6-6.1-8.6c-0.5,0-1.1-0.1-1.6,0c-1.8,0.3-4.1-0.9-5.2,1.1
		c-1.6,2.9,1.2,3.3,3,4.4c2.1,1.3,1.2,3.2,0.6,5.1c-2,5.8-4,11.5-6.4,18.8c-1.6-6-3.1-10.4-3.9-14.9c-0.6-3.6-4.7-8.1,2.4-10.6
		c1.7-0.6,1.2-4-2.2-4c-6.8,0-13.5,0-20.3,0c-3,0-4.5,2.4-2.5,4C570.2,276.5,561.3,284.3,558,292.7z M526.4,293.9
		c0-4.3,0.1-8.7,0-13c-0.3-15.4-11.3-22.2-25.4-15.9c-1.5,0.7-2.6,3-4.9,1.2c-5.9-4.6-12.8-1-19.2-2.1c-1.4-0.2-2.7,0.2-2.9,2
		c-0.1,1.1,0.1,2.3,1.3,2.6c5,1.2,3.8,5.3,3.9,8.6c0.1,9.5,0.1,19,0,28.4c0,3.7,0.9,7.7-3.9,9.6c-1.3,0.5-1.9,1.9-1.3,3.4
		c0.7,1.5,2.2,1.3,3.5,1.3c4.1,0,8.1,0,12.2,0c9.9,0,8.7,0.2,7.3-8.1c-1.8-11.1-1.5-22.7,0.1-33.9c0.5-3.5,4.1-5.9,8-5.2
		c3.8,0.7,3.7,4.1,3.8,7.1c0,9.5,0.1,19,0.1,28.4c0,2.7,0.3,5.5-3.1,6.7c-1.3,0.5-2,1.8-1.5,3.3c0.5,1.7,2,1.6,3.3,1.6
		c5.7,0.1,11.4,0.2,17.1,0c2.2-0.1,5.2,1.4,6.4-1.7c1.1-3-2.4-2.9-3.5-4.3c-1-1.3-0.9-3.5-1-5.4
		C526.3,303.7,526.4,298.8,526.4,293.9z M345.6,293.2c0-4.1,0-8.1,0-12.2c-0.1-9.2-3.7-14.3-12.2-16.8c-5.5-1.6-11.1-2.2-16.9-1.1
		c-13.1,2.6-15.2,5-14.5,18.3c0.1,1.8-1.4,4.7,2.1,5.2c3.2,0.5,3.2-2.4,3.8-4.3c1.7-5.1,4.2-9.6,9.5-11.4c4.8-1.6,9.6-1,11.2,4.7
		c1.3,4.6,1.1,8.7-5.4,10.3c-6.8,1.7-13.3,4.9-18.1,10.4c-5,5.7-7.2,12.2-3.3,19.4c3.2,5.8,10.8,8.2,18.7,5.1
		c5.3-2.1,9.9-4.7,15.1,0.2c1.2,1.1,4.2,0.7,6.3,0.4c7.4-1.3,8.6-4.6,4.4-10.5c-0.7-1-0.6-2.6-0.6-3.9
		C345.6,302.4,345.6,297.8,345.6,293.2z M470,292.3c-0.1-1.5-0.2-4.5-0.7-7.4c-2.5-12.7-12.2-21.9-23.3-22.4
		c-10.8-0.4-21.6,7.9-24.9,19.5c-1.4,4.9-1.9,10-1.1,15.2c2.4,15.3,12.8,25.1,26.3,24.4C459.7,320.9,469.8,309.1,470,292.3z
		 M723.3,292.8c15.5,0,17.9-4,10.7-18.3c-3.5-7-8.9-11.8-17-12c-9-0.3-15.6,4.1-19.8,11.8c-5.5,10.1-5.8,20.8-2.3,31.5
		c5.5,16.6,25.1,21.4,38.1,9.4c1.5-1.3,4-2.5,2.6-5.2c-2-3.8-4-0.4-6.1,0c-2.1,0.5-4.1,1.4-6.2,1.5c-8.3,0.6-13-4.4-13-13.8
		c0-9.1,7-3.4,10.6-4.9C721.6,292.6,722.5,292.8,723.3,292.8z M358.8,292.3C358.9,292.3,358.9,292.3,358.8,292.3
		c0,5.7-0.2,11.4,0.1,17c0.3,5.2,2.7,9.6,7.9,11.2c5,1.5,10.4,1.7,14.5-2.4c2.2-2.2,7-6.1-1.3-6.9c-4.1-0.4-4.1-3.7-4.1-6.7
		c0-8.9,0.2-17.8-0.1-26.8c-0.1-4.5,0.6-7.4,6.1-6.8c2.3,0.3,4.2-0.2,4.3-3.3c0.1-2.9-1.4-4-3.9-3.6c-6.7,1.1-6.8-3-6.4-7.7
		c0.2-2.4,0.1-4.9,0-7.3c0-1.5,0.5-3.5-1.4-4.3c-2.1-0.9-3.5,0.5-4.6,2.2c-4.3,6.6-9,12.8-14.9,18.1c-1.9,1.7-2.9,5,0.3,5.7
		c4.6,1.1,3.4,4.1,3.5,6.8C358.9,282.6,358.8,287.5,358.8,292.3z M411.7,289.3C411.6,289.3,411.6,289.3,411.7,289.3
		c0-5.7-0.5-11.4,0.1-17c0.8-7-2-8.6-8.6-8.4c-5.9,0.2-9.4,0.3-8.9,7.9c0.8,11.8,0.2,23.8,0.2,35.7c0,2.9,0.5,6.1-3.3,7.4
		c-1.8,0.6-2.5,2.1-1.8,3.9c0.8,2,2.7,1.5,4.2,1.5c5.1,0,10.3,0.2,15.4-0.1c2.5-0.1,5.8,1.5,7.3-1.7c1.6-3.3-2.6-3.4-3.6-5.2
		c-0.8-1.6-1-3.6-1-5.5C411.6,301.7,411.7,295.5,411.7,289.3z M627.3,288.5c0-6.2-0.5-12.5,0.1-18.6c0.7-6.8-3.5-6.2-7.5-5.7
		c-4,0.5-10.3-3-10,5.9c0.4,12.1,0.1,24.3,0,36.5c0,3.3,1.2,7.3-3.7,8.6c-1.5,0.4-1.8,2-1.5,3.4c0.3,1.7,1.7,1.8,3.1,1.8
		c7,0,14,0.1,21.1,0c4.2-0.1,5-3.3,2-4.9c-4.3-2.4-3.5-5.6-3.5-8.9C627.2,300.4,627.3,294.5,627.3,288.5z M618.7,256.8
		c6.2-0.8,9.8-4.2,9.4-10.3c-0.4-5.6-3.9-8.9-9.7-8.6c-6.2,0.3-9.4,3.9-9.1,10.1C609.5,253.9,613.4,256.3,618.7,256.8z M412.6,248
		c-0.2-5.3-2.5-9.3-8.3-10.1c-6.1-0.8-10.1,2.3-10.9,8.3c-0.7,5.6,2.4,9.5,8.1,10.3C407.6,257.3,411.2,254.1,412.6,248z"/>
	<path class="st2" d="M765.7,352c-5.6,8.1-13.3,9.9-22.9,9.9c-217.2-0.2-434.3-0.2-651.5-0.2c-22.5,0-25.9-3.4-25.5-25.9
		c0-1.6,0.2-3.2,0.3-4.9c14.4,0,28.7,0,43.1,0c0.1,2.7,0.5,5.4,0.3,8.1c-0.3,3.7,0.8,5.3,4.9,5.2c19.2-0.2,38.3-0.1,57.5-0.1
		c2.6,0,5.3-0.1,4.6-3.7c-2.1-10.3,4.4-9.9,11.3-9.5c3.2,0.2,6.5-0.2,9.7-0.4c67.8,0.1,135.5,0.2,203.3,0.2
		c121.7,0,243.4-0.1,365.1-0.1C765.7,337.9,765.7,344.9,765.7,352z"/>
	<path class="st3" d="M279.6,281.7c0-10.9,0.1-21.8-0.1-32.7c-0.1-3.1-2.4-4.7-5.5-4.8c-1.9-0.1-3-1-2.9-3c0.2-2.2,1.7-2.5,3.4-2.5
		c6.5,0,13,0,19.5,0c1.8,0,3.3,0.5,3.4,2.5c0.1,1.5-0.5,2.8-2.1,3c-6,0.8-5,5.4-5,9.3c0,20.9,0,41.7-0.1,62.6c0,2.1,1.6,5.2-1.8,6.2
		c-3.1,1-4.9-1.1-6.6-3.4c-13.4-18-27-36-41.9-55.9c0,17-0.1,31.9,0.1,46.9c0,3.3,2.7,4.5,5.6,4.8c2,0.2,3,1.1,2.9,3.1
		c-0.2,2.3-2,2.2-3.6,2.2c-6.8,0-13.6,0-20.3,0c-1.4,0-2.9-0.2-3.3-1.7c-0.5-1.9,0.7-3.2,2.5-3.4c5.5-0.5,5.3-4.5,5.3-8.4
		c0-16.3-0.1-32.5,0.1-48.8c0.1-5.2-0.8-9.6-4.9-13.1c-1.4-1.2-3.3-2.4-2.3-4.7c1-2.3,3.3-1.2,5-1.5c12.9-2.2,22.4,1.5,29.3,13.7
		c6,10.7,14.3,20,21.5,30C278.4,282.1,279,281.9,279.6,281.7z"/>
	<path class="st3" d="M197.4,330.7c-3.2,0.1-6.5,0.6-9.7,0.4c-6.9-0.4-13.4-0.8-11.3,9.5c0.7,3.6-1.9,3.7-4.6,3.7
		c-19.2,0-38.3-0.1-57.5,0.1c-4.1,0-5.1-1.5-4.9-5.2c0.2-2.7-0.2-5.4-0.3-8.1c1.7-6.7-0.6-11.2-6.3-15.6
		c-11.1-8.4-15.3-20.3-12-33.9c3.5-14.6,12.9-25,27.9-26.9c7.8-1,12.3-9.1,20.9-7.3c2.1,0.4,1.6-4.2,1.4-6.4
		c-0.6-5.2,1.6-6.5,6.4-6.3c7.8,0.3,15.7,0.3,23.5,0c4-0.1,6.4,0.7,5.6,5.2c-3.2,17.9,2.4,32.1,17.5,42.4c3,2.1,3.4,5.1,3.3,8.6
		C197.2,304.2,197.3,317.4,197.4,330.7z M165.2,290c-9.2-0.1-18.4-0.3-27.6-0.3c-1.8,0-4.1-0.6-5.2,1.4
		c-7.6,13.3-20.5,24.2-17.7,42.1c0.7,4.6,1.8,5.9,6.2,5.8c14.1-0.2,28.2-0.4,42.3,0c6.1,0.2,9.3-1.1,8.1-7.9
		c-0.6-3.3,0.1-5.5,4.5-5.5c5,0,12.1,2.5,14.6-1.2c2.6-3.8,0.9-10.4,1-15.8c0-1.6-0.2-3.3,0-4.9c2.2-11.9-2.1-21-11.8-27.8
		c-7.1-5-9.1-11.7-8.7-20.3c0.7-15.5,0.2-15.6-15.6-15.5c-2.6,0-7.6-0.7-7.5,0.9c0.5,9.2-3,13.6-12.3,13.2
		c-0.9,7.3-6.5,4.4-10.4,4.6c-12.9,0.8-22,7.1-27.2,18.8c-4.9,11-3,21.2,4.7,30.2c6.6,7.7,7.7,7.8,12.8-1.1c8-14,15.6-28,35.9-23
		c6.2,1.5,5.9-2.2,3.9-6.4c-2.6-5.5-6.3-10-11.4-13.5c-1.3-0.9-3.4-1.4-3-3.3c0.6-2.7,3.2-1.7,4.7-1.5c6.3,0.9,7.5-2.4,6.7-7.5
		c-1-5.9,2.7-5.7,6.9-5.8c4,0,6.6,0.2,6.4,5.4c-0.5,13-0.3,26-0.4,39L165.2,290z"/>
	<path class="st3" d="M668.1,265.6c0-5.1-0.1-9.4,0-13.7c0.1-4.1,0-7.8-5.4-8c-2-0.1-3-1.2-2.7-3.2c0.3-2.3,2.2-1.9,3.8-2.1
		c0.3,0,0.5,0,0.8,0c20-1.4,20-1.4,20,18.7c0,15.4-0.1,30.8,0,46.3c0,4.4-1,9,3.8,12.4c2.5,1.7,0.9,3.8-2,4.1
		c-1.3,0.1-2.7,0-4.1,0.1c-8.3,0.6-16.5-1.3-25,1.2c-8,2.4-16.1-3.4-19.8-12c-3.9-9-4-18.5-1.5-27.8
		C640.3,265.2,651.7,259.6,668.1,265.6z M668,292.7C668,292.7,668,292.7,668,292.7c-0.1-4.3,0.3-8.7-0.2-13c-0.4-4-2.8-7.2-7.1-7.7
		c-4.5-0.5-6.2,3.1-6.9,6.6c-2,8.8-2.2,17.8-0.2,26.6c0.8,3.7,2.4,8.1,7.1,7.3c4.4-0.8,7.5-4,7.3-9.3
		C667.9,299.7,668,296.2,668,292.7z"/>
	<path class="st3" d="M558,292.7c3.3-8.4,12.2-16.2,1.2-24.6c-2-1.6-0.5-4,2.5-4c6.8,0,13.5,0,20.3,0c3.4,0,3.9,3.5,2.2,4
		c-7.1,2.4-3,7-2.4,10.6c0.8,4.5,2.3,8.9,3.9,14.9c2.5-7.2,4.4-13,6.4-18.8c0.6-1.8,1.5-3.8-0.6-5.1c-1.8-1.1-4.5-1.5-3-4.4
		c1.1-2,3.4-0.8,5.2-1.1c0.5-0.1,1.1,0,1.6,0c10.4-0.1,9.7-0.3,6.1,8.6c-5.4,13.2-9.7,26.9-14.7,40.3c-1.2,3.2-0.5,8.6-5.9,8.3
		c-5.3-0.3-4.1-5.7-5.3-8.9c-2.5-6.4-4.2-13.1-7-22c-3.7,10-6.6,17.7-9.5,25.4c-0.9,2.5-1.1,5.4-4.8,5.6c-3.9,0.2-4.1-3-5-5.3
		c-4.8-12.9-9.6-25.8-14.3-38.8c-0.6-1.5-1-3.1-1.7-4.5c-4.3-8.9-4.3-8.9,5.6-8.9c2.4,0,4.9,0,7.3,0c7.1,0,7,0,4.9,6.6
		c-0.4,1.4,0.1,3.2,0.6,4.6C553.8,281.1,555.9,286.9,558,292.7z"/>
	<path class="st3" d="M526.4,293.9c0,4.9-0.1,9.7,0,14.6c0,1.8,0,4.1,1,5.4c1.2,1.5,4.6,1.3,3.5,4.3c-1.1,3.1-4.2,1.6-6.4,1.7
		c-5.7,0.2-11.4,0.1-17.1,0c-1.3,0-2.8,0.1-3.3-1.6c-0.5-1.5,0.2-2.8,1.5-3.3c3.4-1.3,3.1-4.1,3.1-6.7c0-9.5,0-19-0.1-28.4
		c0-3,0-6.5-3.8-7.1c-4-0.7-7.5,1.7-8,5.2c-1.6,11.3-1.9,22.8-0.1,33.9c1.4,8.3,2.6,8.1-7.3,8.1c-4.1,0-8.1,0-12.2,0
		c-1.3,0-2.8,0.2-3.5-1.3c-0.7-1.4-0.1-2.9,1.3-3.4c4.9-1.8,3.9-5.9,3.9-9.6c0-9.5,0.1-19,0-28.4c0-3.3,1.2-7.3-3.9-8.6
		c-1.2-0.3-1.4-1.5-1.3-2.6c0.2-1.8,1.5-2.2,2.9-2c6.4,1,13.3-2.5,19.2,2.1c2.3,1.8,3.4-0.5,4.9-1.2c14.2-6.4,25.2,0.4,25.4,15.9
		C526.5,285.2,526.4,289.6,526.4,293.9z"/>
	<path class="st3" d="M345.6,293.2c0,4.6,0,9.2,0,13.8c0,1.3-0.1,3,0.6,3.9c4.3,5.8,3,9.2-4.4,10.5c-2.1,0.4-5.1,0.7-6.3-0.4
		c-5.2-4.9-9.8-2.3-15.1-0.2c-7.9,3.1-15.5,0.7-18.7-5.1c-3.9-7.2-1.7-13.7,3.3-19.4c4.8-5.5,11.3-8.7,18.1-10.4
		c6.5-1.6,6.7-5.7,5.4-10.3c-1.6-5.7-6.5-6.2-11.2-4.7c-5.3,1.8-7.8,6.3-9.5,11.4c-0.6,1.8-0.6,4.7-3.8,4.3c-3.5-0.5-2-3.4-2.1-5.2
		c-0.7-13.3,1.4-15.7,14.5-18.3c5.8-1.1,11.4-0.5,16.9,1.1c8.5,2.5,12.1,7.5,12.2,16.8C345.7,285.1,345.6,289.2,345.6,293.2z
		 M328.8,300c-1.5-1.5,2.4-6.7-1.8-6.4c-5.4,0.3-8.7,5.1-9.1,10.8c-0.2,3.4,0.5,7.1,4.9,6.8C329,310.6,329.3,305.7,328.8,300z"/>
	<path class="st3" d="M470,292.3c-0.1,16.8-10.2,28.7-23.7,29.4c-13.5,0.7-24-9.1-26.3-24.4c-0.8-5.2-0.3-10.3,1.1-15.2
		c3.3-11.6,14.1-20,24.9-19.5c11.1,0.4,20.8,9.7,23.3,22.4C469.8,287.8,469.8,290.8,470,292.3z M436.7,292.5
		c0.7,5.4,1.1,10.8,2.1,16.1c0.6,3,2.1,5.7,5.8,5.8c3.8,0.2,5.4-2.5,6.1-5.4c2.6-11.2,2.5-22.5-0.3-33.7c-0.7-2.7-2.1-5-5.4-5.2
		c-3.8-0.2-5.4,2.6-6,5.5C437.9,281.2,437.4,286.8,436.7,292.5z"/>
	<path class="st3" d="M723.3,292.8c-0.8,0-1.7-0.2-2.4,0c-3.6,1.5-10.6-4.2-10.6,4.9c0,9.4,4.7,14.4,13,13.8
		c2.1-0.2,4.1-1.1,6.2-1.5c2-0.4,4.1-3.8,6.1,0c1.4,2.7-1.1,3.9-2.6,5.2c-13,12-32.6,7.2-38.1-9.4c-3.5-10.7-3.2-21.4,2.3-31.5
		c4.2-7.7,10.8-12.1,19.8-11.8c8.1,0.3,13.5,5.1,17,12C741.2,288.8,738.9,292.8,723.3,292.8z M722.2,279.9c-0.6-4,0.4-10-5.4-10.2
		c-6.3-0.2-5.8,5.7-6.6,10.2c-0.9,5.7,2.7,5.2,6.4,5.2C720.3,285.3,723.2,284.9,722.2,279.9z"/>
	<path class="st3" d="M358.8,292.3c0-4.9,0.1-9.7,0-14.6c-0.1-2.7,1.1-5.7-3.5-6.8c-3.2-0.8-2.2-4-0.3-5.7
		c5.9-5.3,10.6-11.5,14.9-18.1c1.1-1.7,2.5-3.1,4.6-2.2c1.9,0.8,1.3,2.7,1.4,4.3c0.1,2.4,0.2,4.9,0,7.3c-0.3,4.7-0.3,8.8,6.4,7.7
		c2.6-0.4,4,0.6,3.9,3.6c-0.1,3.1-2,3.6-4.3,3.3c-5.4-0.7-6.2,2.3-6.1,6.8c0.2,8.9,0,17.8,0.1,26.8c0,3,0,6.3,4.1,6.7
		c8.3,0.9,3.5,4.7,1.3,6.9c-4.1,4-9.5,3.9-14.5,2.4c-5.2-1.6-7.6-6-7.9-11.2C358.7,303.7,358.9,298,358.8,292.3
		C358.9,292.3,358.9,292.3,358.8,292.3z"/>
	<path class="st3" d="M411.7,289.3c0,6.2-0.1,12.4,0,18.7c0,1.8,0.2,3.9,1,5.5c1,1.9,5.2,1.9,3.6,5.2c-1.5,3.2-4.8,1.6-7.3,1.7
		c-5.1,0.2-10.3,0.1-15.4,0.1c-1.6,0-3.4,0.4-4.2-1.5c-0.7-1.8,0-3.3,1.8-3.9c3.8-1.3,3.3-4.5,3.3-7.4c0-11.9,0.6-23.8-0.2-35.7
		c-0.5-7.7,3-7.7,8.9-7.9c6.6-0.2,9.3,1.3,8.6,8.4C411.1,277.9,411.6,283.6,411.7,289.3C411.6,289.3,411.6,289.3,411.7,289.3z"/>
	<path class="st3" d="M627.3,288.5c0,5.9-0.1,11.9,0,17.8c0.1,3.3-0.7,6.6,3.5,8.9c2.9,1.6,2.2,4.9-2,4.9c-7,0.1-14,0.1-21.1,0
		c-1.4,0-2.8-0.1-3.1-1.8c-0.2-1.4,0-3,1.5-3.4c5-1.3,3.7-5.3,3.7-8.6c0.1-12.2,0.4-24.3,0-36.5c-0.3-8.9,6-5.4,10-5.9
		c4-0.5,8.2-1.1,7.5,5.7C626.8,276,627.3,282.3,627.3,288.5z"/>
	<path class="st3" d="M618.7,256.8c-5.2-0.5-9.2-2.9-9.5-8.9c-0.3-6.1,2.9-9.8,9.1-10.1c5.8-0.3,9.4,3.1,9.7,8.6
		C628.4,252.6,624.8,256,618.7,256.8z"/>
	<path class="st3" d="M412.6,248c-1.5,6.1-5.1,9.3-11.1,8.5c-5.6-0.8-8.8-4.7-8.1-10.3c0.7-5.9,4.7-9.1,10.9-8.3
		C410.1,238.7,412.4,242.7,412.6,248z"/>
	<path class="st1" d="M165,290.2c0.1-13,0-26,0.4-39c0.2-5.3-2.4-5.5-6.4-5.4c-4.2,0-7.8-0.1-6.9,5.8c0.8,5.1-0.4,8.4-6.7,7.5
		c-1.5-0.2-4.2-1.2-4.7,1.5c-0.4,1.9,1.8,2.4,3,3.3c5,3.5,8.8,8,11.4,13.5c2,4.2,2.4,8-3.9,6.4c-20.3-5-27.8,9-35.9,23
		c-5.1,8.9-6.2,8.8-12.8,1.1c-7.7-9.1-9.6-19.3-4.7-30.2c5.2-11.7,14.3-18,27.2-18.8c4-0.2,9.5,2.7,10.4-4.6
		c9.2,0.4,12.8-4.1,12.3-13.2c-0.1-1.6,4.9-0.9,7.5-0.9c15.8-0.1,16.3,0,15.6,15.5c-0.4,8.6,1.6,15.2,8.7,20.3
		c9.7,6.8,13.9,16,11.8,27.8c-0.3,1.6,0,3.2,0,4.9c-0.2,5.4,1.5,12-1,15.8c-2.5,3.8-9.6,1.2-14.6,1.2c-4.4,0-5.1,2.2-4.5,5.5
		c1.1,6.7-2,8.1-8.1,7.9c-14.1-0.4-28.2-0.3-42.3,0c-4.4,0.1-5.5-1.2-6.2-5.8c-2.7-17.9,10.1-28.8,17.7-42.1c1.1-2,3.4-1.4,5.2-1.4
		c9.2,0.1,18.4,0.2,27.6,0.3c-4.2,6.6-8.2,13.3-12.8,19.6c-3.9,5.3-4.8,11-5,17.4c-0.2,6.8,3.6,6.9,8.1,6.3
		c4.1-0.5,10.9,2.9,9.8-5.9c-0.9-6.5,2.1-8.1,7.8-7.4c2.9,0.3,5.9,0.1,8.9,0c1.9,0,4.1,0.1,4-2.7c-0.1-8.9,1.9-18.6-1.3-26.2
		c-1.8-4.2-12.3-1.1-18.9-1.2C165.5,289.9,165.2,290.1,165,290.2z M131.3,317.3c-2.7,1.6-8.2-2.8-10.4,2.3
		c-3.7,8.3,0.4,13.8,9.7,13.8c2.7,0,5.4,0,8.1,0c2.2,0,3.2-0.8,3.7-3.2C144.5,319.7,142.7,317.3,131.3,317.3z"/>
	<path class="st1" d="M668,292.7c0,3.5-0.1,7.1,0,10.6c0.2,5.3-2.9,8.5-7.3,9.3c-4.7,0.8-6.3-3.6-7.1-7.3c-2-8.9-1.8-17.8,0.2-26.6
		c0.8-3.5,2.4-7.1,6.9-6.6c4.3,0.5,6.7,3.6,7.1,7.7C668.3,284,667.9,288.3,668,292.7C668,292.7,668,292.7,668,292.7z"/>
	<path class="st1" d="M328.8,300c0.4,5.7,0.2,10.6-6,11.1c-4.4,0.4-5.1-3.4-4.9-6.8c0.4-5.7,3.7-10.4,9.1-10.8
		C331.3,293.3,327.4,298.6,328.8,300z"/>
	<path class="st1" d="M436.7,292.5c0.7-5.7,1.2-11.4,2.3-16.9c0.6-2.9,2.2-5.7,6-5.5c3.3,0.1,4.7,2.4,5.4,5.2
		c2.8,11.2,2.9,22.5,0.3,33.7c-0.7,3-2.4,5.6-6.1,5.4c-3.7-0.2-5.3-2.9-5.8-5.8C437.8,303.3,437.4,297.9,436.7,292.5z"/>
	<path class="st1" d="M722.2,279.9c1,4.9-1.9,5.3-5.6,5.3c-3.7-0.1-7.3,0.4-6.4-5.2c0.7-4.5,0.2-10.4,6.6-10.2
		C722.6,270,721.6,275.9,722.2,279.9z"/>
	<path class="st3" d="M165,290.2c0.3-0.1,0.5-0.3,0.8-0.3c6.6,0.1,17.2-3,18.9,1.2c3.2,7.6,1.2,17.4,1.3,26.2c0,2.8-2.1,2.7-4,2.7
		c-3,0-6,0.3-8.9,0c-5.7-0.7-8.7,0.9-7.8,7.4c1.2,8.8-5.7,5.4-9.8,5.9c-4.5,0.5-8.4,0.5-8.1-6.3c0.2-6.4,1.1-12.1,5-17.4
		c4.6-6.3,8.6-13.1,12.8-19.6C165.2,290,165,290.2,165,290.2z M171.2,309.7c-0.9-1.4,1.5-4.7-2.4-5.2c-3.6-0.5-3.5,2.3-3.4,4.8
		c0.1,2.2-1,5.2,2.8,5.4C171.6,314.9,171.1,312.4,171.2,309.7z"/>
	<path class="st3" d="M131.3,317.3c11.4,0,13.2,2.4,11,13c-0.5,2.4-1.5,3.2-3.7,3.2c-2.7,0-5.4,0-8.1,0c-9.2,0-13.4-5.5-9.7-13.8
		C123.1,314.5,128.6,318.9,131.3,317.3z"/>
	<path class="st1" d="M171.2,309.7c-0.1,2.7,0.3,5.2-3,5c-3.8-0.2-2.6-3.2-2.8-5.4c-0.2-2.4-0.3-5.2,3.4-4.8
		C172.7,305,170.4,308.4,171.2,309.7z"/>
</g>
</svg>
