<?xml version="1.0" encoding="utf-8"?>
<!-- Generator: Adobe Illustrator 21.0.0, SVG Export Plug-In . SVG Version: 6.00 Build 0)  -->
<svg version="1.1" id="Layer_1" xmlns="http://www.w3.org/2000/svg" xmlns:xlink="http://www.w3.org/1999/xlink" x="0px" y="0px"
	 viewBox="0 0 820 600" style="enable-background:new 0 0 820 600;" xml:space="preserve">
<style type="text/css">
	.st0{fill:url(#SVGID_1_);}
	.st1{fill:url(#SVGID_2_);}
	.st2{fill:#363636;}
	.st3{fill:#F55B0E;}
	.st4{fill:url(#SVGID_3_);}
	.st5{fill:url(#SVGID_4_);}
	.st6{fill:url(#SVGID_5_);}
	.st7{fill:url(#SVGID_6_);}
</style>
<linearGradient id="SVGID_1_" gradientUnits="userSpaceOnUse" x1="55.6" y1="657.39" x2="765.6" y2="-52.61" gradientTransform="matrix(1 0 0 -1 0 602.39)">
	<stop  offset="0" style="stop-color:#FFFFFF"/>
	<stop  offset="0.2636" style="stop-color:#FCFCFC"/>
	<stop  offset="0.4492" style="stop-color:#F3F3F3"/>
	<stop  offset="0.6104" style="stop-color:#E3E3E3"/>
	<stop  offset="0.7012" style="stop-color:#D7D7D7"/>
</linearGradient>
<rect x="0.6" y="0" class="st0" width="820" height="600"/>
<g>
	<linearGradient id="SVGID_2_" gradientUnits="userSpaceOnUse" x1="-40.8871" y1="313.2298" x2="890.5663" y2="313.2298">
		<stop  offset="0" style="stop-color:#FFFFFF"/>
		<stop  offset="0.2758" style="stop-color:#FCFCFC"/>
		<stop  offset="0.4864" style="stop-color:#F2F2F2"/>
		<stop  offset="0.6755" style="stop-color:#E2E2E2"/>
		<stop  offset="0.8507" style="stop-color:#CBCBCB"/>
		<stop  offset="1" style="stop-color:#B1B1B1"/>
	</linearGradient>
	<path class="st1" d="M424.8,637.9c-154,0-307.9,0-461.9,0.1c-3.1,0-3.9-0.8-3.9-4.3c0.1-213.6,0.1-427.2,0-640.9
		c0-3.5,0.7-4.3,3.9-4.3c307.9,0.1,615.8,0.1,923.7,0c3.1,0,3.9,0.8,3.9,4.3c-0.1,213.6-0.1,427.2,0,640.9c0,3.5-0.7,4.3-3.9,4.3
		C732.8,637.9,578.8,637.9,424.8,637.9z M232.1,446.1c0.3-0.1,0.7-0.2,1-0.3c2.8,6.1,5.5,12.1,8.3,18.2c1.1,2.5,1.9,4.7,5.6,4.7
		c3.5-0.1,4.2-2.1,5.2-4.5c2.8-6.2,5.6-12.4,8.5-18.6c0.8,1.4,0.9,2.6,0.9,3.8c0,7,0.2,14.1-0.1,21.1c-0.2,4.4,2.8,3.2,5.1,3.4
		c2.5,0.2,4-0.1,3.9-3.3c-0.2-12.2-0.1-24.3-0.1-36.5c0-6.7-0.3-6.8-6.9-6.7c-2.5,0.1-3.6,1.4-4.5,3.4c-3.9,8.1-7.9,16.1-12,24.6
		c-0.7-1.1-1-1.6-1.3-2.1c-3.8-7.7-7.6-15.3-11.3-23c-2-4.3-5.7-2.6-8.7-2.6c-3.1,0-2.3,2.9-2.3,4.8c0,12.5,0.1,25.1-0.1,37.6
		c-0.1,3.4,1.1,4.1,4.2,3.9c2.6-0.2,4.9,0.3,4.7-3.8C231.9,462.2,232.1,454.1,232.1,446.1z M406.2,460.1c-0.3,0.1-0.6,0.2-0.9,0.3
		c-5.3-9-10.9-17.9-15.7-27.1c-2.4-4.7-5.4-6.4-10.5-5.9c-3.2,0.3-4.5,1.1-4.4,4.5c0.2,12.7,0.2,25.3,0,38c0,3.2,0.9,4.1,4.1,4.1
		c3.3,0,4.1-1,4-4.2c-0.2-9.3-0.1-18.5-0.1-27.8c6,8.6,11.5,17.1,16.3,26.1c2.5,4.7,5.6,6.2,10.6,5.9c3.7-0.2,4.9-1.4,4.9-5
		c-0.1-12.5-0.2-25.1,0-37.6c0.1-3.4-1.3-4-4.3-4c-3,0-4.2,0.7-4.1,4C406.4,441,406.2,450.5,406.2,460.1z M664.4,450.9
		C664.4,450.9,664.3,450.9,664.4,450.9c0,5.8,0,11.5,0,17.3c0,6,0,5.9,6.2,5.8c2.3-0.1,3.2-0.8,3.1-3.1c-0.1-3.8,0-7.7-0.1-11.5
		c-0.1-2,0.3-2.6,2.7-2.8c5.5-0.5,8.8,1.6,10.8,6.7c0.7,1.9,2.3,3.4,3,5.3c1.8,5,5.4,6,10.2,5.5c2.6-0.3,2.7-1,1.5-3
		c-2.8-4.6-5.4-9.3-8.2-13.9c-0.8-1.3-0.9-2,0.7-2.9c6.1-3.2,7.5-8.6,6.6-14.9c-0.9-6.6-5.2-10-11.3-11.3
		c-7.3-1.6-14.7-0.8-22.1-0.2c-2.5,0.2-3.2,1.2-3.2,3.6C664.4,437.9,664.4,444.4,664.4,450.9z M444,450.9c0,6.6,0.1,13.3,0,19.9
		c0,2.4,0.8,3.3,3.1,3.1c1-0.1,2.1-0.1,3.1,0c2.3,0.2,3.2-0.6,3.1-3c-0.1-4.1,0-8.2-0.1-12.3c0-1.6,0.4-2,2.1-2.2
		c5.5-0.4,9.5,1.3,11.5,6.8c0.7,1.9,2.3,3.4,3,5.3c1.8,4.8,5.1,6,9.8,5.4c2.4-0.3,3.4-0.6,1.8-3.1c-2.8-4.6-5.4-9.2-8.2-13.8
		c-0.8-1.4-0.7-2,0.7-2.9c5.8-3.6,7.9-8.4,6.7-15.3c-0.9-5.6-5-9.6-11.4-11c-7.4-1.6-14.7-0.7-22.1-0.2c-2.7,0.2-3.4,1.5-3.3,4
		C444.1,438.1,444,444.5,444,450.9z M213.3,450.6c0.1,0,0.1,0,0.2,0c0-1.4,0-2.8,0-4.2c-0.1-10-5.9-16.9-15.6-18.9
		c-12.9-2.7-23.9,4-25.5,16c-0.5,3.6-0.2,7.4-0.2,11.1c0,11.7,6.9,18.7,19.4,19.7c11.5,0.9,20.2-5.7,21.8-16.8
		C213.6,455.3,213.3,452.9,213.3,450.6z M323.3,450.5c0.1,15.9,5.7,22.8,19.6,23.8c12.1,0.9,21.1-6.6,21.8-18.4
		c0.2-3.4,0.2-6.9,0-10.3c-0.6-10.5-7.7-17.7-18-18.4c-12.6-0.8-20.9,4.6-23,15.3C323.3,445.1,323.4,447.8,323.3,450.5z M162,450.6
		c0-5.8,0-11.5,0-17.3c0-6.1,0-6-6.1-5.9c-2.5,0.1-3.3,1-3.2,3.4c0.2,4.1,0,8.2,0.1,12.3c0,1.8-0.4,2.5-2.3,2.5
		c-5.2-0.1-10.5-0.1-15.7,0c-2.2,0.1-2.5-0.9-2.5-2.7c0.1-3.8-0.2-7.7,0.1-11.5c0.3-3.4-1.2-4.2-4.2-3.9c-2.6,0.2-5.3-0.6-5.2,3.9
		c0.3,12.1,0.1,24.3,0.1,36.4c0,6.4,0,6.3,6.3,6.2c2.4,0,3.1-0.9,3-3.2c-0.1-4.7,0-9.5-0.1-14.2c0-2.1,0.5-3,2.8-3
		c5,0.1,10,0.1,15,0c2.2-0.1,2.9,0.7,2.8,2.9c-0.1,4.6,0.2,9.2-0.1,13.8c-0.3,4.3,2.5,3.5,5,3.6c2.8,0.2,4.6-0.1,4.4-3.8
		C161.8,463.6,162,457.1,162,450.6z M532.2,444.3c0,3.5,0,6.9,0,10.4c0,13.2,5.7,19.2,18.9,19.8c12,0.5,19.5-5.7,20-17.1
		c0.4-9.1,0.1-18.2,0-27.2c0-0.9,0.2-2.1-0.9-2.3c-2.4-0.5-4.9-0.7-7.2,0c-2,0.6-1.1,2.9-1.1,4.4c-0.1,7.9,0,15.9,0,23.8
		c-0.1,6.3-2.5,9.5-7.4,10.4c-8.5,1.5-13-2.3-13-10.9c0-7.4,0-14.8,0-22.2c0-6.1,0-6.1-6.2-5.8c-2.1,0.1-3.2,0.6-3.1,3.1
		C532.4,435.1,532.2,439.7,532.2,444.3z M621.5,450.6c0.4,5.5-0.5,11,0.7,16.5c0.8,3.8,3.1,6.3,6.9,6.8c7.4,1,14.8,0.5,22.2-0.3
		c3.3-0.3,2.2-2.7,2.4-4.6c0.2-2.5-1.3-2.6-3.2-2.6c-3.3,0.1-6.7,0.1-10,0c-10.8-0.2-9.6,1.3-9.8-10c0-2.2,0.7-2.8,2.8-2.8
		c5.1,0.1,10.2,0,15.4,0.1c2.7,0.1,4.2-0.2,4.2-3.6c-0.1-3.1-1-4-4-3.8c-3.8,0.3-7.7,0.1-11.5,0.1c-7.1,0-7,0-6.8-7.1
		c0.1-3.4,1.5-4.5,4.7-4.3c4.9,0.2,9.7,0.1,14.6,0.1c1.8,0,3.8,0.3,3.6-2.5c-0.1-2.1,0.7-4.5-3-4.8c-6.7-0.6-13.3-0.8-19.9-0.4
		c-5.3,0.3-7.7,2.8-8.7,8.1C621.1,440.4,621.9,445.5,621.5,450.6z M490.8,450.6C490.9,450.6,490.9,450.6,490.8,450.6
		c0,4.9-0.2,9.7,0.1,14.6c0.3,5.4,3,8.2,7.9,8.8c7,0.8,14,0.3,21-0.3c3.5-0.3,2.5-2.7,2.7-4.7c0.2-2.5-1.2-2.6-3.1-2.6
		c-3.3,0.1-6.7,0.1-10,0c-10.6-0.3-9.5,1.7-9.7-10c0-2.3,0.8-2.8,2.9-2.8c5.5,0.1,11-0.1,16.5,0.1c3.5,0.1,2.4-2.4,2.6-4.2
		c0.2-2.1-0.1-3.4-2.8-3.2c-4.2,0.2-8.4,0.1-12.7,0.1c-7,0-6.9,0-6.6-7c0.1-3.2,1.2-4.6,4.6-4.5c5.1,0.2,10.2,0,15.3,0.1
		c2.1,0,3.2-0.6,2.8-2.8c-0.3-1.8,1-4-2.5-4.4c-6.9-0.8-13.8-0.9-20.7-0.4c-5.4,0.4-8.1,3.4-8.5,9.1
		C490.6,441.1,490.8,445.9,490.8,450.6z M299.8,427.1c-3.5-0.1-6.5,0.1-9.5,1c-4.5,1.4-8.1,3.8-9.2,8.8c-1.3,6.2,1.4,11.5,7.3,14
		c4.5,1.9,9.2,3,13.5,5.4c2.3,1.3,4.4,2.9,3.7,6c-0.7,3.2-3.2,4-6.1,4.1c-4.6,0.2-9.2-0.4-13.8-0.8c-1.5-0.1-3.7-1-3.6,1.8
		c0,2.2-1.1,5.1,2.7,5.7c5.8,0.9,11.6,1.8,17.5,1.1c7.5-1,12-4.9,12.9-11.5c0.9-6.7-1.8-10.8-9.3-13.9c-4-1.6-8.1-3.1-12-4.9
		c-1.9-0.9-4-2.2-3.6-4.9c0.4-2.3,2.4-3.1,4.5-3.5c1.2-0.2,2.5-0.5,3.8-0.4c4,0.2,7.9,0.6,11.8,0.9c1.5,0.1,3.7,1.2,3.6-1.7
		c-0.1-2.1,1.6-5.1-2.4-5.8C307.5,427.7,303.5,427.1,299.8,427.1z M728,427.1c-2.5,0.1-5.1,0-7.6,0.6c-7.1,1.7-10.8,5.4-11.2,11.3
		c-0.4,5.9,3,10.3,9.6,12.7c3.8,1.4,7.8,2.5,11.4,4.5c2.2,1.3,4.5,2.6,3.9,5.8c-0.7,3.5-3.3,4.2-6.3,4.4c-4.6,0.2-9.2-0.4-13.8-0.8
		c-1.4-0.1-3.5-1-3.3,1.6c0.1,2-1.6,4.9,2,5.6c6.5,1.4,13.1,2.2,19.8,1c6.5-1.2,10.6-5.6,11.2-11.5c0.6-6.6-1.8-10.4-8.6-13.2
		c-4-1.7-8.1-3.2-12-4.9c-2.2-1-4.8-2.3-4.5-5.1c0.3-3.1,3.3-3.5,5.8-4c0.9-0.2,1.8-0.2,2.7-0.1c3.9,0.3,7.9,0.6,11.8,0.9
		c1.5,0.1,3.4,0.9,3.4-1.6c0-2.1,1.6-5-2.2-5.8C736.1,427.7,732.1,427.1,728,427.1z M591.6,454.3c0,5.2,0.2,10.5-0.1,15.7
		c-0.2,3.5,1.3,4.1,4.3,3.9c2.6-0.2,5.3,0.7,5.1-3.8c-0.3-10.6,0-21.2-0.1-31.9c0-2.3,0.6-3.2,3-3.1c2.9,0.2,5.9,0,8.8,0.1
		c2.4,0.1,2.8-1.3,2.5-3.2c-0.2-1.8,1.2-4.5-2.3-4.5c-11,0-22,0-33,0c-3.4,0-2.2,2.4-2.3,4.1c-0.1,1.6-0.8,3.8,2.3,3.7
		c3.1-0.1,6.1,0.1,9.2-0.1c2-0.1,2.6,0.6,2.6,2.6C591.6,443.3,591.6,448.8,591.6,454.3z M91.8,454.3c0,5.1,0.2,10.2-0.1,15.3
		c-0.2,3.7,1.2,4.4,4.6,4.4c3.2-0.1,4.9-0.4,4.8-4.3c-0.2-10.5,0-21-0.1-31.4c0-2.3,0.6-3.2,3-3.1c2.9,0.2,5.9,0,8.8,0.1
		c2.9,0.1,2.5-1.9,2.4-3.7c-0.1-1.8,0.8-4.1-2.4-4.1c-11,0-22-0.1-33,0c-3.4,0-2.1,2.8-2.3,4.6c-0.2,1.8-0.1,3.3,2.4,3.2
		c2.8-0.1,5.6,0.1,8.4-0.1c2.6-0.2,3.6,0.6,3.5,3.4C91.6,443.8,91.8,449,91.8,454.3z M520.6,255.2c7.2,0.1,12.7-5.3,12.8-12.4
		c0.1-6.2-4.5-11.8-10.1-12.2c-8.8-0.6-14.8,4.5-14.8,11.6C508.4,249.5,513.6,255.1,520.6,255.2z M288,242.4
		c0,7.3,5.2,12.7,12.3,12.8c7,0,12.4-5.2,12.4-12.3c0.1-7.2-5.3-12.5-12.5-12.5C293.3,230.4,288,235.6,288,242.4z M292.7,271.2
		c0,5.3,5.5,12.3,9.6,12.2c7.7-0.3,13.3-5.3,13.4-11.8c0.1-6.4-5.2-11.7-11.6-11.7C297.8,259.7,292.7,264.8,292.7,271.2z
		 M304.3,202.8c-6.6,0-11.5,4.7-11.6,11.1c-0.1,6.6,5.1,12,11.4,11.9c6.1-0.1,11.4-5.4,11.6-11.5
		C315.8,208.1,310.6,202.8,304.3,202.8z M528.6,271.7c0.2-6.4-4.7-11.7-10.9-11.9c-6.5-0.2-11.6,4.7-12,11.4
		c-0.3,5.3,5.6,12.7,10.1,12.2C523.6,282.4,528.1,278.9,528.6,271.7z M517.3,202.8c-6.5-0.1-11.5,4.8-11.6,11.2
		c-0.1,6.3,5.3,11.8,11.6,11.8c6.1,0,11.2-5.3,11.3-11.6C528.6,207.7,523.9,202.9,517.3,202.8z M304.9,187.4
		c-0.1,6,4.3,10.7,10,10.8c5.7,0.1,10.8-4.9,10.7-10.6c-0.1-5.5-4.4-10.1-9.8-10.2C309.4,177.2,305,181.2,304.9,187.4z M506.2,198.2
		c5.8,0,10.2-4.7,10.2-10.7c-0.1-5.9-4.6-10.3-10.4-10.3c-5.5,0-10.4,5-10.4,10.6C495.6,193.2,500.7,198.2,506.2,198.2z
		 M516.4,298.1c0.1-5.8-4.5-10.6-10.1-10.7c-5.6-0.1-10.6,4.8-10.7,10.3c-0.2,5.4,4.8,10.5,10.4,10.6
		C511.8,308.4,516.4,303.9,516.4,298.1z M304.9,297.9c0,5.9,4.3,10.3,10.3,10.4c5.7,0.1,10.5-4.7,10.4-10.4
		c0-5.6-4.9-10.5-10.5-10.5C309.4,287.4,304.9,291.9,304.9,297.9z M331.5,267.3c-5.6,0-9.7,4.1-9.7,9.6c0,5.5,4.2,9.8,9.5,9.8
		c5.5,0,10.1-4.5,10-9.9C341.3,271.3,337.1,267.2,331.5,267.3z M489.7,218.3c5.6,0,9.7-4.1,9.7-9.6c0-5.5-4.2-9.8-9.6-9.8
		c-5.6,0-9.8,4.1-9.8,9.5C480,214.3,483.9,218.3,489.7,218.3z M334.3,255.3c0-4.9-4-9.1-8.8-9.3c-4.6-0.1-9,4.2-9,9.1
		c-0.1,5.1,3.8,9,8.9,9.1C330.3,264.3,334.2,260.4,334.3,255.3z M504.7,230.4c0-5.3-3.9-9.3-9.1-9.2c-4.9,0.1-8.7,3.9-8.7,8.8
		c0,5.2,3.7,9.1,8.8,9.2C500.6,239.4,504.8,235.3,504.7,230.4z M352,296.1c-0.1-5.1-4-8.9-9.1-8.8c-5.1,0.1-8.8,3.8-8.8,9
		c0,5,4.2,9.1,9,8.9C348.2,305,352.1,301,352,296.1z M478.2,198.3c5.1,0,9-3.8,9-8.9c0-4.9-4-9-9-9.1c-4.7-0.1-9,4.2-8.9,9.1
		C469.3,194.4,473.1,198.3,478.2,198.3z M488.5,156.5c-4.9,0.1-8.4,3.7-8.3,8.4c0.1,4.4,3.9,8.1,8.4,8.2c4.6,0,8.5-3.8,8.5-8.4
		C497,159.9,493.5,156.5,488.5,156.5z M488.7,328.9c4.8-0.1,9.1-4.4,9-9.1c-0.1-3.1-5.5-7.5-9.1-7.4c-4.6,0.1-8.4,3.9-8.4,8.2
		C480.2,325.6,483.7,329,488.7,328.9z M487.9,252.1c-0.1,4.9,3.4,8.8,8,8.9c4.3,0.1,8.4-3.8,8.5-8.2c0.1-4.2-4.1-8.3-8.4-8.3
		C491.8,244.5,488,248.1,487.9,252.1z M332.5,328.9c5,0,8.6-3.5,8.5-8.3c-0.1-4.5-3.8-8.1-8.4-8.1c-4.6,0-8.2,3.6-8.2,8.2
		C324.3,325.4,327.9,328.9,332.5,328.9z M332.9,156.6c-4.8-0.1-8.7,3.6-8.7,8.1c0.1,4.6,3.7,8.3,8.2,8.3c4.8,0.1,8.6-3.5,8.7-8.2
		C341.1,160.3,337.4,156.6,332.9,156.6z M359.3,319.9c4.5,0,8.1-3.6,8-8c0-4.4-3.6-8.1-8-8.2c-4.6-0.1-8.3,3.5-8.3,8.1
		C351,316.6,354.4,319.9,359.3,319.9z M317,232.8c0,4.3,3.5,8.1,7.8,8.2c4.6,0.1,8.5-3.8,8.4-8.6c-0.1-4.2-3.9-8-8.2-8
		C320.7,224.4,317.1,228.2,317,232.8z M454,173.7c0,4.6,3.4,8.1,7.8,8.1c4.7,0,8.5-3.6,8.4-8.1c-0.1-4.8-3.5-8.1-8.4-8
		C457.2,165.7,454,169.1,454,173.7z M365.6,298.2c4.7,0,8.5-3.5,8.4-7.9c-0.1-4.4-3.7-7.9-8.1-7.9c-4.6,0-8,3.3-8.1,7.8
		C357.7,294.7,361.1,298.2,365.6,298.2z M463.3,195.5c0.1-4.8-2.9-8.1-7.5-8.3c-4.7-0.2-8.5,3.3-8.5,7.9c0,4.5,3.3,8,7.9,8
		C460.1,203.2,463.2,200.2,463.3,195.5z M472.6,338.3c0-4.1-2.7-6.8-6.6-6.9c-4.2,0-7.4,3.1-7.3,7.2c0.1,3.5,3.5,6.6,7.2,6.5
		C469.8,345.1,472.6,342.2,472.6,338.3z M438.7,176.7c-4,0-7.2,3-7.2,6.8c0,4.1,2.8,7,6.9,7.1c3.9,0.1,7.1-3,7.2-6.8
		C445.7,179.9,442.6,176.7,438.7,176.7z M389.6,301.9c0-4.2-2.7-7-6.9-7c-4.1,0-7,2.9-7,7c0,3.9,3.1,7,7.1,7
		C386.8,308.9,389.6,306,389.6,301.9z M468,218.3c4,0,7-3.1,7-7c-0.1-4-3.2-7-7.1-6.9c-3.9,0-7,3.2-7,7.1
		C461,215.4,464.1,218.4,468,218.3z M353.2,267.3c-4.1,0.1-6.9,3-6.8,7.1c0.1,4,3.2,6.9,7.1,6.9c3.8-0.1,6.9-3.3,6.8-7.2
		C360.2,269.9,357.3,267.2,353.2,267.3z M362.4,338.4c0-3.8-3-6.9-6.7-6.9c-3.7-0.1-7.3,3.2-7.5,6.9c-0.2,3.3,3.5,6.8,7.4,6.7
		C359.5,345,362.4,342.2,362.4,338.4z M355.6,154c4.1-0.1,6.8-2.8,6.8-6.7c-0.1-4.1-3-6.9-7.2-6.8c-3.9,0.1-6.7,3.1-6.5,6.9
		C348.8,151.5,351.5,154,355.6,154z M465.8,140.6c-4-0.1-7.2,3-7.1,6.9c0,3.5,3.1,6.4,6.7,6.5c4.3,0.1,7-2.5,7.1-6.7
		C472.5,143.2,469.9,140.6,465.8,140.6z M497.1,274.7c0-3.8-2.6-6.6-6.3-6.7c-3.8-0.1-6.5,2.6-6.6,6.4c0,3.8,2.6,6.6,6.4,6.6
		C494.3,281.1,497,278.5,497.1,274.7z M442.6,169.2c3.7,0,6.7-3.1,6.6-6.6c-0.1-3.4-3.4-6.5-6.9-6.4c-3.6,0.1-6.7,3.3-6.6,6.6
		C435.9,166.4,438.9,169.2,442.6,169.2z M330.1,217.4c3.7,0.3,6.8-2.3,7.1-5.9c0.3-3.6-2.4-6.8-6-7.1c-3.6-0.4-6.7,2.3-7.1,6
		C323.8,214,326.4,217.1,330.1,217.4z M372.5,322.5c0,4,2.3,6.6,6.1,6.7c3.7,0.1,6.8-2.8,6.8-6.6c0-3.7-2.7-6.2-6.6-6.2
		C375,316.5,372.5,318.9,372.5,322.5z M396.9,283.4c-3.5,0-6.3,2.7-6.3,6.2c0,3.7,2.8,6.6,6.5,6.5c3.4-0.1,6.2-3,6.2-6.5
		C403.3,286.3,400.3,283.4,396.9,283.4z M430.9,195.8c0.1-3-3.1-6.4-6.3-6.5c-3.2-0.1-6.4,2.9-6.5,6.2c-0.2,3.4,2.6,6.4,6,6.6
		C427.5,202.2,430.8,199.2,430.9,195.8z M402.2,301.2c-3.5,0.1-6.3,3.1-6.1,6.5c0.2,3.5,3.1,6.1,6.6,6c3.3-0.1,6-3,5.9-6.3
		C408.5,303.9,405.6,301.2,402.2,301.2z M346.5,248.8c-3.7-0.1-6.2,2.4-6.2,6c0,3.6,2.7,6.3,6.1,6.4c3.5,0,6.2-2.6,6.3-6.2
		C352.7,251.4,350.3,248.9,346.5,248.8z M474.7,224.4c-3.6,0-6.1,2.8-6.1,6.4c0.1,3.5,2.8,6.1,6.5,6c3.4-0.1,5.9-2.7,5.9-6.2
		C481.1,227.1,478.2,224.3,474.7,224.4z M425,177.9c0-3.7-2.3-6-6-6c-3.6,0-6.5,2.7-6.5,6.1c0,3.3,3.1,6.5,6.3,6.4
		C422.4,184.3,425,181.5,425,177.9z M382.2,141.4c3.3,0,5.5-2.3,5.4-5.5c0-2.8-2.6-5.2-5.5-5.2c-3,0-5.5,2.6-5.4,5.7
		C376.9,139.6,378.9,141.5,382.2,141.4z M387.6,349.2c-0.1-3.1-2.5-5.3-5.8-5.2c-3.1,0.1-5.2,2.3-5.1,5.3c0.1,3,2.8,5.6,5.7,5.5
		C385,354.7,387.7,351.8,387.6,349.2z M433.9,349.2c-0.1,3,2.5,5.7,5.5,5.6c2.6-0.1,5.3-2.9,5.3-5.6c0-2.8-2.5-5.4-5.3-5.5
		C436.3,343.6,434,346,433.9,349.2z M438.4,196.8c-3-0.1-5.6,2.4-5.7,5.5c-0.1,3.1,2.4,5.5,5.6,5.5c3.2,0,5.5-2.4,5.5-5.6
		C443.8,199.2,441.4,196.8,438.4,196.8z M377.3,283.6c0.1,2.6,2.9,5.3,5.6,5.3c2.9,0,5.5-2.6,5.5-5.7c0-3.2-2.5-5.6-5.7-5.4
		C379.8,277.9,377.3,280.6,377.3,283.6z M420.9,152c-3.5-0.2-5.3,1.4-5.5,4.8c-0.2,3.3,1.9,5.8,4.9,6c2.6,0.2,5.7-2.7,5.8-5.5
		C426.2,154.5,423.8,152.1,420.9,152z M417.4,291.9c0.1-3.2-2.2-5.7-5.3-5.7c-2.7,0-5.4,2.5-5.6,5.2c-0.2,2.9,2.5,5.7,5.4,5.8
		C415,297.4,417.3,295.2,417.4,291.9z M409.1,188.3c-2.9,0.1-5.7,2.9-5.5,5.7c0.1,3,2.9,5.4,5.9,5.2c3.1-0.2,5.2-2.4,5.2-5.4
		C414.7,190.7,412.2,188.2,409.1,188.3z M444.7,136.4c0.1-2.7-2.5-5.5-5.2-5.6c-2.9-0.1-5.4,2.2-5.5,5.1c-0.1,3.7,1.6,5.5,5.2,5.6
		C442.3,141.5,444.6,139.3,444.7,136.4z M346.9,191.3c0-3-2.3-5.3-5.3-5.4c-3,0-5.6,2.7-5.5,5.6c0.1,2.8,2.8,5.2,5.6,5.2
		C344.7,196.7,346.9,194.4,346.9,191.3z M485,294.3c0.1-3.2-1.9-5.3-5.1-5.4c-2.9-0.1-5.5,2.3-5.6,5.1c-0.1,3,2.4,5.7,5.4,5.7
		C482.8,299.6,484.9,297.5,485,294.3z M400.8,333.6c2.9-0.1,5.3-2.5,5.3-5.4c0-2.7-2.6-5.3-5.4-5.4c-3.1,0-5.3,2.4-5.2,5.7
		C395.5,331.8,397.5,333.7,400.8,333.6z M415.6,132.6c0-3.2-1.7-5-4.9-5c-3,0-5.2,2.1-5.2,4.9c0,2.7,2.4,5.2,5.1,5.2
		C413.2,137.7,415.5,135.3,415.6,132.6z M410.6,358c3.1,0,5-1.8,5-4.9c0-3.2-1.9-4.6-4.7-5c-2.7-0.4-5.2,2-5.3,4.8
		C405.5,355.6,407.7,357.9,410.6,358z M427.8,307.5c0-3.2-2.4-5.6-5.2-5.4c-3,0.2-4.6,1.9-4.7,4.9c-0.1,2.8,2.3,5.1,5.1,4.9
		C425.9,311.7,427.4,309.8,427.8,307.5z M398.7,210.6c-0.2-2.4-2.1-3.9-4.8-4.3c-2.5-0.3-5.3,2.4-5.1,5c0.2,2.9,1.9,4.7,4.8,5
		C396.1,216.6,398.6,214,398.7,210.6z M398.5,173.7c-2.7,0-4.8,2.1-4.9,4.8c0,2.7,2.3,5.2,5.1,4.9c2.8-0.2,4.8-1.4,4.7-4.6
		C403.3,175.7,401.3,173.6,398.5,173.7z M350.9,234.1c-0.3-2.5-1.8-4.3-4.8-4.4c-2.9-0.1-4.8,1.4-5.1,4.4c-0.2,2.8,1.9,5.3,4.6,5.4
		C348.3,239.6,350.8,237.2,350.9,234.1z M394,201.4c3.2,0.1,4.8-1.6,4.9-4.6c0.1-2.9-1.4-4.9-4.5-5.1c-3-0.2-5.1,1.8-5.1,4.8
		C389.4,199.6,391,201.2,394,201.4z M432.5,273c-0.2-1.9-2.1-3.5-4.8-3.8c-2.6-0.3-5.2,2.4-5,5c0.2,2.9,1.8,4.7,4.8,4.8
		C430.4,279.2,432.6,276.9,432.5,273z M480.2,251.2c0.1-3.2-1.7-4.8-4.5-5.1c-2.8-0.3-5,2.1-5,5c0,3.2,1.8,4.8,4.7,4.8
		C478.3,255.9,480.1,254.3,480.2,251.2z M431.9,288.6c-0.4-2.8-1.8-4.5-4.9-4.5c-3.2,0-4.5,2.1-4.8,4.8c-0.3,2.7,2.4,4.9,5.2,4.8
		C430.4,293.6,431.7,291.7,431.9,288.6z M376.7,272.4c-0.1-2.5-2.6-5-5-4.7c-2.8,0.4-4.7,2-4.7,5c0.1,2.9,1.7,4.7,4.8,4.8
		C374.7,277.5,376.8,275.3,376.7,272.4z M444.7,212.8c-0.3,2.9,1.5,4.5,4.4,4.8c2.7,0.3,5-1.8,5.1-4.5c0.1-3.1-1.6-4.8-4.5-5.1
		C447,207.6,444.8,209.8,444.7,212.8z M385,222.6c2.4-0.5,4.1-2,4.1-4.6c0-2.6-1.7-4.3-4.3-4.3c-2.6,0-4.4,1.5-4.5,4.2
		C380.3,220.8,382.2,222.1,385,222.6z M361.6,175.1c-0.5-2.5-2.1-4.2-4.6-4.2c-2.6,0.1-4.2,2.1-4.1,4.6c0.1,2.4,1.8,4,4.3,3.9
		C359.7,179.4,361.3,177.8,361.6,175.1z M468.1,310.2c-0.1-2.6-1.5-4.2-4-4.1c-2.6,0-4.2,1.6-4.1,4.4c0,2.6,1.6,4.2,4,4.1
		C466.5,314.6,468.2,313,468.1,310.2z M421.6,278.1c-0.5-2.5-1.5-4.5-4.4-4.5c-2.7,0-4.5,1.6-4.5,4.2c-0.1,2.9,1.9,4.5,4.7,4.5
		C419.8,282.2,421.1,280.4,421.6,278.1z M404.2,212c2.7-0.2,4.2-1.7,4.3-4.4c0.1-2.7-1.6-4.4-4.2-4.4c-2.5,0-4.2,1.5-4.2,4.3
		C400,210.3,401.5,211.7,404.2,212z M432.2,267.9c0.2,2.4,1.9,4,4.4,3.9c2.6-0.1,4.2-1.9,4.1-4.5c-0.1-2.6-1.7-4.4-4.4-4.3
		C433.8,263.2,432.2,264.8,432.2,267.9z M448.7,321.9c-0.3-2.2-1.2-3.9-4-3.9c-2.5,0-3.9,1.3-4,3.6c-0.1,2.5,1.4,4,4,4.1
		C447.1,325.7,448.4,324.4,448.7,321.9z M422.7,332c3,0,4.6-1.5,4.6-3.9c0.1-2.5-1.3-4.4-4.2-4.3c-2.5,0.1-4.2,1.3-4.3,3.9
		C418.8,330.4,420.3,331.9,422.7,332z M402.3,157.7c-0.2-2.7-1.5-4.1-4.1-4.2c-2.6-0.1-4.1,1.3-4.1,3.9c0,2.7,1.2,4.2,4.1,4.2
		C401,161.5,402,160,402.3,157.7z M446.2,300c-0.3-2.3-1.7-3.8-4-3.8c-2.2,0-4,1.1-4.1,3.6c-0.1,2.6,1.2,4.1,3.8,4.4
		C444.8,304.4,445.4,302.1,446.2,300z M469.7,274.8c2.2-0.7,4.1-1.7,4-4.3c-0.1-2.5-1.8-3.9-4.3-3.8c-2.4,0.1-3.7,1.8-3.6,4.1
		C465.9,273.1,467.3,274.5,469.7,274.8z M347.8,214.9c-0.4,2.8,1.6,3.9,3.9,3.9c2.2,0,3.8-1.4,3.9-3.8c0.1-2.6-1.7-4.1-4.1-4.1
		C349.4,210.9,347.7,212.1,347.8,214.9z M380.3,163.6c-0.1-2-1-3.6-3.6-3.7c-2.9-0.1-4.1,1.6-4.2,4.3c-0.1,2.7,1.8,3.3,3.9,3.4
		C378.9,167.7,380.3,166.3,380.3,163.6z M379.1,189.2c2.6,0,4-1.3,4.1-3.9c0.1-2.5-1.5-3.8-3.8-3.8c-2.4-0.1-4,1.2-4,3.9
		C375.5,188,376.6,189.2,379.1,189.2z M436.9,282c-0.2,2.2,1.5,3.4,3.7,3.4c2.3,0,3.8-1.6,3.8-4c0-2.4-1.6-3.6-4.1-3.5
		C438,278,436.8,279.2,436.9,282z M456.9,222.6c-2.8-0.2-4,1.7-3.9,3.7c0,2.2,1.6,3.8,3.9,3.8c2.5,0,3.6-1.7,3.6-4
		C460.5,223.8,459.3,222.4,456.9,222.6z M380.4,207.6c2.7,0.1,4.2-1.3,4.2-3.6c0-2.2-1.3-4-3.7-3.9c-2.1,0.1-3.9,1.2-3.9,3.8
		C377,206.3,378,207.8,380.4,207.6z M364.4,263c2.3,0,3.6-1,3.8-3.3c0.1-2.4-1-4-3.4-4.2c-2.3-0.2-4,1.3-4.1,3.6
		C360.6,261.3,361.8,262.9,364.4,263z M446.6,258.1c0-2.5-1.5-3.8-3.8-3.7c-2.3,0-3.8,1.6-3.8,3.9c0,2.4,1.5,3.8,3.9,3.7
		C445.2,261.9,446.6,260.7,446.6,258.1z M382.3,227.3c-0.2-2.1-1.3-3.7-3.7-3.8c-2.5-0.2-3.9,1.5-4.1,3.7c-0.3,2.5,1.6,3.8,3.7,3.9
		C380.5,231.3,382,230,382.3,227.3z M409.6,278.2c0-2.5-1.3-3.8-3.7-3.9c-2.4-0.1-3.9,1.5-4,3.7c-0.1,2.3,1.5,3.8,3.8,3.9
		C408.1,282,409.6,280.7,409.6,278.2z M415.4,211.1c2.6-0.2,3.8-1.6,3.7-4c-0.1-2.5-1.6-3.7-4-3.6c-2.3,0.1-3.7,1.5-3.6,4
		C411.7,210,413.2,211,415.4,211.1z M378.7,237.9c-0.2-2.4-1.7-3.3-3.7-3.2c-2.1,0.1-3.3,1.5-3.1,3.5c0.2,2,1.3,3.3,3.6,3.1
		C377.6,241.1,378.5,239.8,378.7,237.9z M449.4,247.6c-0.1-2.2-1.3-3.4-3.6-3.4c-2.2,0-2.9,1.4-3,3.2c0,2.1,1,3.3,3.3,3.2
		C448.1,250.6,449.7,250.2,449.4,247.6z M395.1,278.2c2.3,0.1,3.3-1.2,3.5-3.2c0.1-2.2-1.2-3.2-3.3-3.2c-2.2-0.1-3.4,1.1-3.4,3.2
		C392,276.8,392.8,278.4,395.1,278.2z M426.4,207.3c-2.7,0.1-3.6,1.5-3.5,3.6c0.1,2,1.3,3,3.3,2.9c2.1-0.1,3.3-1.2,3.3-3.3
		C429.4,208.1,428,207.3,426.4,207.3z M463,241.4c-0.5-1.6-1.2-3.1-3.2-3.1c-2,0-3.1,1.3-3.2,3.1c-0.1,1.8,1.1,3,3.1,3.1
		C461.8,244.5,462.4,243,463,241.4z M360.6,241.2c-1,0-2,0.9-1.9,3c0,1.8,0.9,3,2.7,3.1c2,0.1,3.2-1,3.3-2.9
		C364.8,242.5,363.8,241.2,360.6,241.2z M370.3,218.2c1.8-0.2,3-1.3,2.9-3.2c-0.1-1.8-1.2-3.1-3.2-2.9c-1.9,0.1-2.8,1.3-2.8,3
		C367.2,216.9,368.1,218.2,370.3,218.2z M462.1,287.6c-1.2-1.2-1.7-3-3.6-3.1c-1.7-0.1-2.9,0.8-3.1,2.6c-0.2,1.9,0.5,3.2,2.7,3.3
		C460.1,290.5,460.8,288.9,462.1,287.6z M454.1,270.2c-0.1-1.8-1-2.9-3-2.8c-1.9,0.1-3,1.2-3,3.1c0,1.9,1.1,3,3.1,3
		C453.2,273.5,454,272.3,454.1,270.2z M438.4,216.9c-0.2-1.7-1.2-2.9-2.9-3c-1.9-0.1-3.1,1-3.1,3c0,2.1,1.3,2.7,3.2,2.8
		C437.9,219.9,437.9,218.2,438.4,216.9z M366.3,197.9c-0.6-1.1-0.9-2.7-2.9-2.7c-1.7,0-3,0.4-3.1,2.5c-0.1,2,0.9,3.2,2.8,3.3
		C364.8,201,365.7,199.7,366.3,197.9z M378.6,248.9c-0.6-1.3-1.2-2.8-3-2.7c-1.5,0.1-3,0.9-2.9,2.8c0.1,1.8,1.1,2.8,2.9,2.9
		C377.5,252.1,377.9,250.6,378.6,248.9z M448.7,236.3c-0.4-1.2-0.7-2.7-2.7-2.7c-1.9,0-2.8,0.9-3,2.7c-0.1,1.8,1,2.8,2.7,3
		C447.5,239.4,448.3,238.2,448.7,236.3z M385.8,265.8c-1.7,0.1-2.5,0.9-2.6,2.7c-0.1,2,1.2,3,2.7,3.1c1.6,0.1,2.8-1.2,2.8-3
		C388.7,266.8,387.7,265.8,385.8,265.8z M444.5,225.3c-0.5-0.8-1-2-2.6-1.9c-1.6,0.2-2.1,1.2-2,2.7c0.1,1.4,0.9,2.2,2.2,2
		C443.5,228,444.5,227.2,444.5,225.3z M366,228.6c-0.4-1.2-1.2-2-2.7-1.9c-1.4,0.2-1.9,1.2-1.8,2.4c0.1,1.3,0.8,2.1,2.2,2.1
		C365.1,231.1,365.9,230.3,366,228.6z M381.6,259.9c0-1.7-1-2.5-2.3-2.6c-1.1-0.1-2.1,0.6-2.2,2.1c-0.1,1.5,0.5,2.6,2,2.7
		C380.4,262.1,381.4,261.4,381.6,259.9z M459.9,256.2c-0.1-1-0.9-1.9-2.4-1.9c-1.2,0-2.1,0.7-2.1,2.1c0,1.6,0.9,2.3,2.3,2.3
		C458.9,258.7,459.9,258.1,459.9,256.2z"/>
	<path class="st2" d="M232.1,446.1c0,8-0.2,16.1,0.1,24.1c0.2,4.1-2.1,3.6-4.7,3.8c-3,0.2-4.2-0.5-4.2-3.9
		c0.2-12.5,0.1-25.1,0.1-37.6c0-1.9-0.8-4.7,2.3-4.8c3,0,6.7-1.8,8.7,2.6c3.6,7.7,7.5,15.4,11.3,23c0.3,0.6,0.6,1.1,1.3,2.1
		c4.2-8.5,8.1-16.6,12-24.6c0.9-2,2-3.3,4.5-3.4c6.6-0.2,6.9,0,6.9,6.7c0,12.2-0.1,24.3,0.1,36.5c0.1,3.3-1.4,3.6-3.9,3.3
		c-2.3-0.2-5.2,1-5.1-3.4c0.3-7,0.1-14.1,0.1-21.1c0-1.2-0.1-2.4-0.9-3.8c-2.8,6.2-5.7,12.3-8.5,18.6c-1.1,2.4-1.7,4.5-5.2,4.5
		c-3.7,0.1-4.4-2.2-5.6-4.7c-2.7-6.1-5.5-12.2-8.3-18.2C232.8,445.9,232.5,446,232.1,446.1z"/>
	<path class="st2" d="M406.2,460.1c0-9.5,0.2-19.1-0.1-28.6c-0.1-3.3,1.1-4.1,4.1-4c3,0,4.3,0.5,4.3,4c-0.2,12.5-0.2,25.1,0,37.6
		c0,3.6-1.2,4.8-4.9,5c-5.1,0.3-8.1-1.2-10.6-5.9c-4.8-9-10.3-17.5-16.3-26.1c0,9.3-0.1,18.5,0.1,27.8c0.1,3.1-0.8,4.2-4,4.2
		c-3.2,0-4.1-0.9-4.1-4.1c0.2-12.7,0.2-25.3,0-38c0-3.4,1.2-4.2,4.4-4.5c5.1-0.5,8.1,1.2,10.5,5.9c4.8,9.3,10.4,18.1,15.7,27.1
		C405.6,460.3,405.9,460.2,406.2,460.1z"/>
	<path class="st2" d="M664.4,450.9c0-6.5,0.1-13,0-19.6c0-2.4,0.7-3.4,3.2-3.6c7.4-0.6,14.8-1.5,22.1,0.2
		c6.1,1.4,10.4,4.7,11.3,11.3c0.9,6.3-0.5,11.7-6.6,14.9c-1.6,0.8-1.5,1.5-0.7,2.9c2.8,4.6,5.4,9.3,8.2,13.9c1.2,2,1.1,2.8-1.5,3
		c-4.8,0.5-8.4-0.5-10.2-5.5c-0.7-1.9-2.3-3.4-3-5.3c-1.9-5.1-5.2-7.2-10.8-6.7c-2.4,0.2-2.7,0.8-2.7,2.8c0.1,3.8-0.1,7.7,0.1,11.5
		c0.1,2.4-0.8,3.1-3.1,3.1c-6.2,0.1-6.2,0.2-6.2-5.8C664.3,462.4,664.3,456.7,664.4,450.9C664.3,450.9,664.4,450.9,664.4,450.9z
		 M673.6,442.1c0,7.2,0,7.2,7.4,7.2c1.8,0,3.6-0.2,5.3-0.4c3.5-0.4,5.5-2.4,5.7-6c0.2-3.9-1.4-6.1-5.3-7.3c-2-0.6-4-0.6-6.1-0.6
		C673.6,435,673.6,435,673.6,442.1z"/>
	<path class="st2" d="M444,450.9c0-6.4,0.1-12.8,0-19.2c0-2.5,0.6-3.7,3.3-4c7.4-0.6,14.8-1.4,22.1,0.2c6.3,1.4,10.4,5.4,11.4,11
		c1.2,6.9-0.9,11.7-6.7,15.3c-1.4,0.9-1.5,1.5-0.7,2.9c2.8,4.6,5.4,9.3,8.2,13.8c1.5,2.5,0.6,2.8-1.8,3.1c-4.7,0.6-8.1-0.7-9.8-5.4
		c-0.7-1.9-2.3-3.4-3-5.3c-2-5.5-6-7.2-11.5-6.8c-1.7,0.1-2.1,0.6-2.1,2.2c0.1,4.1-0.1,8.2,0.1,12.3c0.1,2.4-0.8,3.3-3.1,3
		c-1-0.1-2-0.1-3.1,0c-2.3,0.2-3.2-0.8-3.1-3.1C444.1,464.2,444,457.5,444,450.9z M460.7,449.3c1.6,0,3.8,0,5.9-0.5
		c3.3-0.7,5-2.6,5.2-6.1c0.2-3.5-1.2-5.9-4.6-7c-2.1-0.7-4.2-0.8-6.4-0.7c-7.5,0-7.5,0-7.5,7.4C453.2,449.3,453.2,449.3,460.7,449.3
		z"/>
	<path class="st2" d="M213.3,450.6c0,2.3,0.3,4.6,0,6.9c-1.6,11.1-10.3,17.7-21.8,16.8c-12.4-1-19.3-8-19.4-19.7
		c0-3.7-0.3-7.5,0.2-11.1c1.6-12,12.6-18.7,25.5-16c9.8,2.1,15.5,9,15.6,18.9c0,1.4,0,2.8,0,4.2
		C213.4,450.6,213.3,450.6,213.3,450.6z M181.3,450.5C181.3,450.5,181.3,450.5,181.3,450.5c0,1.8-0.1,3.6,0,5.4
		c0.6,6.2,4.7,10.1,10.7,10.4c6.1,0.3,10.5-3.1,11.7-9.2c0.8-4.2,0.8-8.4,0.1-12.6c-1-6.2-5.5-9.8-11.5-9.6
		c-6.3,0.2-10.6,4.4-11,10.9C181.2,447.5,181.3,449,181.3,450.5z"/>
	<path class="st2" d="M323.3,450.5c0.1-2.7,0-5.4,0.5-8c2.1-10.6,10.4-16.1,23-15.3c10.3,0.7,17.4,7.9,18,18.4
		c0.2,3.4,0.2,6.9,0,10.3c-0.8,11.9-9.7,19.4-21.8,18.4C329,473.3,323.4,466.4,323.3,450.5z M332.7,450.5c0,1.7-0.1,3.3,0,5
		c0.4,6.2,4.4,10.3,10.4,10.8c6.2,0.5,10.9-2.9,12.1-9.2c0.8-4.3,0.8-8.6,0-12.9c-1.2-6.1-5.9-9.6-11.8-9.2
		c-6.3,0.5-10.3,4.6-10.7,10.9C332.6,447.5,332.6,449,332.7,450.5z"/>
	<path class="st2" d="M162,450.6c0,6.5-0.2,13,0.1,19.6c0.2,3.7-1.7,3.9-4.4,3.8c-2.5-0.1-5.3,0.7-5-3.6c0.3-4.6,0-9.2,0.1-13.8
		c0.1-2.2-0.6-2.9-2.8-2.9c-5,0.1-10,0.1-15,0c-2.3-0.1-2.8,0.9-2.8,3c0.1,4.7-0.1,9.5,0.1,14.2c0.1,2.3-0.6,3.1-3,3.2
		c-6.3,0.1-6.3,0.2-6.3-6.2c0-12.1,0.2-24.3-0.1-36.4c-0.1-4.5,2.6-3.6,5.2-3.9c3-0.3,4.5,0.5,4.2,3.9c-0.3,3.8,0,7.7-0.1,11.5
		c0,1.8,0.3,2.8,2.5,2.7c5.2-0.1,10.5-0.1,15.7,0c1.9,0,2.4-0.7,2.3-2.5c-0.1-4.1,0.1-8.2-0.1-12.3c-0.1-2.5,0.7-3.4,3.2-3.4
		c6.1-0.2,6.1-0.2,6.1,5.9C162,439.1,162,444.8,162,450.6z"/>
	<path class="st2" d="M532.2,444.3c0-4.6,0.2-9.2-0.1-13.8c-0.1-2.5,0.9-3,3.1-3.1c6.2-0.2,6.2-0.3,6.2,5.8c0,7.4,0,14.8,0,22.2
		c0,8.6,4.6,12.3,13,10.9c5-0.9,7.4-4.1,7.4-10.4c0.1-7.9,0-15.9,0-23.8c0-1.5-0.9-3.8,1.1-4.4c2.3-0.7,4.8-0.5,7.2,0
		c1.1,0.2,0.9,1.4,0.9,2.3c0,9.1,0.3,18.2,0,27.2c-0.5,11.4-8,17.7-20,17.1c-13.2-0.6-18.9-6.5-18.9-19.8
		C532.2,451.2,532.2,447.8,532.2,444.3z"/>
	<path class="st2" d="M621.5,450.6c0.3-5.1-0.4-10.2,0.5-15.3c1-5.3,3.4-7.7,8.7-8.1c6.6-0.4,13.3-0.2,19.9,0.4
		c3.8,0.3,2.9,2.7,3,4.8c0.2,2.8-1.9,2.5-3.6,2.5c-4.9,0-9.7,0.1-14.6-0.1c-3.2-0.1-4.7,1-4.7,4.3c-0.2,7.1-0.3,7.1,6.8,7.1
		c3.8,0,7.7,0.2,11.5-0.1c3-0.2,3.9,0.7,4,3.8c0.1,3.5-1.5,3.7-4.2,3.6c-5.1-0.1-10.2,0.1-15.4-0.1c-2.2-0.1-2.8,0.5-2.8,2.8
		c0.2,11.3-1,9.9,9.8,10c3.3,0.1,6.7,0.1,10,0c1.9,0,3.4,0.1,3.2,2.6c-0.2,1.8,0.9,4.2-2.4,4.6c-7.4,0.8-14.8,1.3-22.2,0.3
		c-3.8-0.5-6.1-2.9-6.9-6.8C621,461.6,621.9,456.1,621.5,450.6z"/>
	<path class="st2" d="M490.8,450.6c0-4.7-0.2-9.5,0.1-14.2c0.3-5.7,3.1-8.7,8.5-9.1c6.9-0.5,13.8-0.3,20.7,0.4
		c3.5,0.4,2.2,2.7,2.5,4.4c0.3,2.2-0.7,2.9-2.8,2.8c-5.1-0.1-10.2,0.1-15.3-0.1c-3.4-0.2-4.5,1.3-4.6,4.5c-0.3,7-0.4,7,6.6,7
		c4.2,0,8.4,0.2,12.7-0.1c2.7-0.1,3,1.1,2.8,3.2c-0.2,1.8,0.9,4.3-2.6,4.2c-5.5-0.1-11,0-16.5-0.1c-2.1,0-2.9,0.5-2.9,2.8
		c0.2,11.7-0.8,9.8,9.7,10c3.3,0.1,6.7,0.1,10,0c1.9,0,3.3,0.1,3.1,2.6c-0.2,2,0.8,4.4-2.7,4.7c-7,0.5-14,1.1-21,0.3
		c-4.9-0.6-7.5-3.5-7.9-8.8C490.6,460.3,490.9,455.4,490.8,450.6C490.9,450.6,490.9,450.6,490.8,450.6z"/>
	<path class="st2" d="M299.8,427.1c3.7,0,7.8,0.6,11.8,1.4c4,0.7,2.3,3.7,2.4,5.8c0.1,2.9-2.1,1.8-3.6,1.7c-4-0.3-7.9-0.7-11.8-0.9
		c-1.2-0.1-2.5,0.2-3.8,0.4c-2.1,0.4-4.1,1.1-4.5,3.5c-0.5,2.6,1.6,4,3.6,4.9c3.9,1.8,8,3.3,12,4.9c7.5,3,10.2,7.1,9.3,13.9
		c-0.9,6.6-5.4,10.5-12.9,11.5c-5.9,0.8-11.7-0.2-17.5-1.1c-3.8-0.6-2.7-3.4-2.7-5.7c0-2.8,2.1-1.9,3.6-1.8c4.6,0.4,9.2,1,13.8,0.8
		c2.9-0.1,5.4-0.9,6.1-4.1c0.7-3.1-1.4-4.7-3.7-6c-4.3-2.4-9-3.5-13.5-5.4c-5.9-2.5-8.6-7.8-7.3-14c1.1-5,4.7-7.4,9.2-8.8
		C293.2,427.2,296.3,427,299.8,427.1z"/>
	<path class="st2" d="M728,427.1c4.1,0,8.1,0.6,12.2,1.4c3.8,0.8,2.2,3.7,2.2,5.8c0,2.5-1.9,1.7-3.4,1.6c-3.9-0.3-7.9-0.6-11.8-0.9
		c-0.9-0.1-1.8,0-2.7,0.1c-2.5,0.5-5.5,0.9-5.8,4c-0.3,2.8,2.2,4.1,4.5,5.1c4,1.7,8,3.2,12,4.9c6.8,2.9,9.2,6.7,8.6,13.2
		c-0.5,5.8-4.7,10.3-11.2,11.5c-6.6,1.2-13.2,0.4-19.8-1c-3.6-0.8-1.9-3.7-2-5.6c-0.2-2.6,2-1.7,3.3-1.6c4.6,0.4,9.2,1,13.8,0.8
		c3-0.1,5.6-0.9,6.3-4.4c0.6-3.2-1.7-4.6-3.9-5.8c-3.6-2-7.5-3.1-11.4-4.5c-6.6-2.4-10-6.8-9.6-12.7c0.4-5.9,4.1-9.6,11.2-11.3
		C722.9,427.1,725.4,427.2,728,427.1z"/>
	<path class="st2" d="M591.6,454.3c0-5.5-0.1-11,0-16.5c0-2-0.6-2.7-2.6-2.6c-3.1,0.1-6.1-0.1-9.2,0.1c-3.1,0.1-2.4-2-2.3-3.7
		c0.1-1.6-1.1-4.1,2.3-4.1c11,0,22,0,33,0c3.5,0,2.1,2.8,2.3,4.5c0.3,1.9-0.1,3.3-2.5,3.2c-2.9-0.1-5.9,0.1-8.8-0.1
		c-2.4-0.1-3,0.8-3,3.1c0.1,10.6-0.2,21.2,0.1,31.9c0.1,4.5-2.5,3.6-5.1,3.8c-3,0.2-4.5-0.4-4.3-3.9
		C591.9,464.8,591.6,459.5,591.6,454.3z"/>
	<path class="st2" d="M91.8,454.3c0-5.2-0.2-10.5,0.1-15.7c0.1-2.8-0.9-3.5-3.5-3.4c-2.8,0.2-5.6-0.1-8.4,0.1
		c-2.5,0.1-2.7-1.4-2.4-3.2c0.2-1.8-1.1-4.5,2.3-4.6c11,0,22,0,33,0c3.2,0,2.4,2.3,2.4,4.1c0.1,1.7,0.5,3.8-2.4,3.7
		c-2.9-0.1-5.9,0.1-8.8-0.1c-2.4-0.2-3,0.8-3,3.1c0.1,10.5-0.1,21,0.1,31.4c0.1,3.9-1.6,4.2-4.8,4.3c-3.4,0.1-4.8-0.7-4.6-4.4
		C92,464.5,91.8,459.4,91.8,454.3z"/>
	<path class="st3" d="M520.6,255.2c-7-0.1-12.2-5.7-12.1-13c0-7.1,6-12.1,14.8-11.6c5.6,0.4,10.1,5.9,10.1,12.2
		C533.3,249.9,527.8,255.3,520.6,255.2z"/>
	<path class="st3" d="M288,242.4c0-6.8,5.3-12,12.2-12c7.3,0,12.6,5.3,12.5,12.5c-0.1,7.1-5.4,12.3-12.4,12.3
		C293.1,255.1,287.9,249.7,288,242.4z"/>
	<path class="st3" d="M292.7,271.2c0-6.4,5.1-11.5,11.4-11.4c6.4,0.1,11.7,5.4,11.6,11.7c-0.1,6.5-5.7,11.5-13.4,11.8
		C298.2,283.5,292.6,276.5,292.7,271.2z"/>
	<path class="st3" d="M304.3,202.8c6.3,0,11.5,5.3,11.4,11.5c-0.1,6.1-5.5,11.5-11.6,11.5c-6.4,0.1-11.5-5.3-11.4-11.9
		C292.7,207.5,297.7,202.8,304.3,202.8z"/>
	<path class="st3" d="M528.6,271.7c-0.4,7.2-5,10.7-12.7,11.6c-4.5,0.5-10.4-6.9-10.1-12.2c0.3-6.7,5.5-11.6,12-11.4
		C523.9,260,528.8,265.3,528.6,271.7z"/>
	<path class="st3" d="M517.3,202.8c6.6,0.1,11.3,4.9,11.3,11.4c0,6.3-5.2,11.6-11.3,11.6c-6.3,0-11.7-5.5-11.6-11.8
		C505.8,207.6,510.8,202.8,517.3,202.8z"/>
	<path class="st3" d="M304.9,187.4c0.1-6.2,4.5-10.2,10.9-10c5.4,0.1,9.7,4.7,9.8,10.2c0.1,5.8-5,10.8-10.7,10.6
		C309.1,198,304.8,193.3,304.9,187.4z"/>
	<path class="st3" d="M506.2,198.2c-5.5,0-10.6-4.9-10.6-10.4c-0.1-5.6,4.8-10.6,10.4-10.6c5.9,0,10.4,4.5,10.4,10.3
		C516.4,193.5,512,198.2,506.2,198.2z"/>
	<path class="st3" d="M516.4,298.1c-0.1,5.9-4.7,10.3-10.5,10.2c-5.6-0.1-10.5-5.2-10.4-10.6c0.2-5.6,5.2-10.4,10.7-10.3
		C512,287.5,516.5,292.2,516.4,298.1z"/>
	<path class="st3" d="M304.9,297.9c0-6,4.5-10.5,10.2-10.5c5.6,0,10.4,4.8,10.5,10.5c0,5.7-4.7,10.5-10.4,10.4
		C309.2,308.2,304.8,303.8,304.9,297.9z"/>
	<path class="st3" d="M331.5,267.3c5.5,0,9.8,4.1,9.8,9.5c0.1,5.4-4.6,9.9-10,9.9c-5.3,0-9.5-4.4-9.5-9.8
		C321.8,271.3,325.9,267.3,331.5,267.3z"/>
	<path class="st3" d="M489.7,218.3c-5.8,0-9.7-4-9.7-9.9c0-5.4,4.2-9.4,9.8-9.5c5.3,0,9.6,4.3,9.6,9.8
		C499.4,214.3,495.3,218.3,489.7,218.3z"/>
	<path class="st3" d="M334.3,255.3c0,5.1-4,9-9,8.9c-5.1-0.1-8.9-4-8.9-9.1c0.1-4.8,4.4-9.2,9-9.1
		C330.3,246.2,334.3,250.4,334.3,255.3z"/>
	<path class="st3" d="M504.7,230.4c0,4.9-4.2,9-9.1,8.9c-5.1-0.1-8.8-4-8.8-9.2c0-4.9,3.8-8.7,8.7-8.8
		C500.8,221.2,504.7,225.1,504.7,230.4z"/>
	<path class="st3" d="M352,296.1c0.1,5-3.8,8.9-8.9,9.1c-4.9,0.2-9-3.9-9-8.9c0-5.2,3.7-9,8.8-9C348.1,287.2,352,291,352,296.1z"/>
	<path class="st3" d="M478.2,198.3c-5,0-8.9-3.9-8.9-8.9c0-4.9,4.2-9.2,8.9-9.1c5,0.1,9,4.2,9,9.1
		C487.2,194.4,483.3,198.3,478.2,198.3z"/>
	<path class="st3" d="M488.5,156.5c5-0.1,8.5,3.4,8.5,8.2c0,4.6-3.8,8.5-8.5,8.4c-4.4,0-8.3-3.8-8.4-8.2
		C480.1,160.2,483.6,156.6,488.5,156.5z"/>
	<path class="st3" d="M488.7,328.9c-5.1,0.1-8.5-3.3-8.5-8.3c0-4.4,3.8-8.1,8.4-8.2c3.6-0.1,9,4.3,9.1,7.4
		C497.8,324.5,493.5,328.9,488.7,328.9z"/>
	<path class="st3" d="M487.9,252.1c0-4,3.9-7.6,8.1-7.6c4.3,0,8.5,4.2,8.4,8.3c-0.1,4.4-4.1,8.3-8.5,8.2
		C491.4,260.9,487.9,257,487.9,252.1z"/>
	<path class="st3" d="M332.5,328.9c-4.7,0-8.3-3.6-8.2-8.2c0.1-4.7,3.7-8.3,8.2-8.2c4.6,0,8.3,3.6,8.4,8.1
		C341.1,325.4,337.5,328.9,332.5,328.9z"/>
	<path class="st3" d="M332.9,156.6c4.6,0.1,8.3,3.8,8.2,8.2c-0.1,4.7-3.8,8.3-8.7,8.2c-4.5-0.1-8.1-3.7-8.2-8.3
		C324.1,160.2,328,156.5,332.9,156.6z"/>
	<path class="st3" d="M359.3,319.9c-5,0-8.3-3.2-8.3-8c0-4.6,3.7-8.3,8.3-8.1c4.4,0.1,7.9,3.7,8,8.2
		C367.4,316.3,363.8,319.8,359.3,319.9z"/>
	<path class="st3" d="M317,232.8c0-4.6,3.7-8.4,8.1-8.4c4.2,0,8.1,3.8,8.2,8c0.1,4.7-3.8,8.7-8.4,8.6
		C320.6,240.9,317,237.2,317,232.8z"/>
	<path class="st3" d="M454,173.7c0-4.6,3.3-8,7.9-8c4.8,0,8.3,3.3,8.4,8c0.1,4.5-3.7,8.1-8.4,8.1C457.3,181.8,454,178.3,454,173.7z"
		/>
	<path class="st3" d="M365.6,298.2c-4.5,0-7.9-3.5-7.8-8.1c0.1-4.5,3.5-7.8,8.1-7.8c4.4,0,8,3.5,8.1,7.9
		C374.1,294.7,370.3,298.3,365.6,298.2z"/>
	<path class="st3" d="M463.3,195.5c-0.1,4.7-3.2,7.7-8.1,7.6c-4.6-0.1-7.9-3.5-7.9-8c0-4.6,3.8-8,8.5-7.9
		C460.4,187.4,463.4,190.7,463.3,195.5z"/>
	<path class="st3" d="M472.6,338.3c0,3.9-2.7,6.8-6.7,6.8c-3.7,0.1-7.1-3-7.2-6.5c-0.1-4.1,3-7.2,7.3-7.2
		C469.9,331.5,472.5,334.2,472.6,338.3z"/>
	<path class="st3" d="M438.7,176.7c3.9,0,7,3.2,6.9,7.1c-0.1,3.9-3.3,6.9-7.2,6.8c-4.1-0.1-6.9-3-6.9-7.1
		C431.5,179.7,434.7,176.6,438.7,176.7z"/>
	<path class="st3" d="M389.6,301.9c0,4.2-2.8,7-6.9,7c-4,0-7.1-3.1-7.1-7c0-4.1,2.9-6.9,7-7C386.9,294.9,389.6,297.6,389.6,301.9z"
		/>
	<path class="st3" d="M468,218.3c-3.9,0-7-3-7.1-6.9c-0.1-3.9,3.1-7,7-7.1c3.9,0,7,3,7.1,6.9C475,215.2,472,218.3,468,218.3z"/>
	<path class="st3" d="M353.2,267.3c4.2-0.1,7,2.6,7.1,6.7c0.1,3.9-3,7.1-6.8,7.2c-4,0.1-7-2.9-7.1-6.9
		C346.2,270.2,349.1,267.3,353.2,267.3z"/>
	<path class="st3" d="M362.4,338.4c0,3.9-2.8,6.6-6.9,6.7c-3.8,0-7.6-3.4-7.4-6.7c0.2-3.7,3.8-6.9,7.5-6.9
		C359.4,331.5,362.3,334.5,362.4,338.4z"/>
	<path class="st3" d="M355.6,154c-4,0.1-6.8-2.5-6.9-6.5c-0.2-3.8,2.6-6.8,6.5-6.9c4.2-0.1,7.1,2.7,7.2,6.8
		C362.4,151.2,359.7,153.9,355.6,154z"/>
	<path class="st3" d="M465.8,140.6c4.1,0.1,6.7,2.7,6.6,6.7c0,4.2-2.8,6.8-7.1,6.7c-3.6-0.1-6.7-3-6.7-6.5
		C458.7,143.6,461.8,140.5,465.8,140.6z"/>
	<path class="st3" d="M497.1,274.7c0,3.8-2.7,6.4-6.5,6.4c-3.7,0-6.4-2.8-6.4-6.6c0-3.8,2.8-6.5,6.6-6.4
		C494.5,268.1,497.1,270.9,497.1,274.7z"/>
	<path class="st3" d="M442.6,169.2c-3.7,0-6.7-2.7-6.8-6.3c-0.1-3.4,3-6.5,6.6-6.6c3.4-0.1,6.7,3,6.9,6.4
		C449.3,166.1,446.3,169.1,442.6,169.2z"/>
	<path class="st3" d="M330.1,217.4c-3.7-0.3-6.3-3.5-5.9-7.1c0.4-3.7,3.5-6.3,7.1-6c3.5,0.3,6.2,3.5,6,7.1
		C336.9,215.1,333.7,217.7,330.1,217.4z"/>
	<path class="st3" d="M372.5,322.5c0-3.6,2.5-6.1,6.2-6.1c4,0,6.6,2.5,6.6,6.2c0,3.8-3,6.8-6.8,6.6
		C374.8,329.1,372.5,326.5,372.5,322.5z"/>
	<path class="st3" d="M396.9,283.4c3.4,0,6.4,2.9,6.4,6.2c0,3.5-2.8,6.4-6.2,6.5c-3.6,0.1-6.5-2.8-6.5-6.5
		C390.6,286.2,393.3,283.5,396.9,283.4z"/>
	<path class="st3" d="M430.9,195.8c-0.1,3.5-3.4,6.5-6.8,6.3c-3.4-0.2-6.1-3.2-6-6.6c0.2-3.3,3.3-6.3,6.5-6.2
		C427.8,189.4,431,192.7,430.9,195.8z"/>
	<path class="st3" d="M402.2,301.2c3.5-0.1,6.3,2.7,6.4,6.2c0.1,3.3-2.6,6.2-5.9,6.3c-3.6,0.1-6.5-2.5-6.6-6
		C395.9,304.3,398.7,301.3,402.2,301.2z"/>
	<path class="st3" d="M346.5,248.8c3.8,0.1,6.2,2.6,6.1,6.2c-0.1,3.6-2.7,6.3-6.3,6.2c-3.5,0-6.1-2.8-6.1-6.4
		C340.3,251.2,342.8,248.7,346.5,248.8z"/>
	<path class="st3" d="M474.7,224.4c3.5,0,6.4,2.7,6.4,6.2c0,3.5-2.5,6.1-5.9,6.2c-3.7,0.1-6.4-2.4-6.5-6
		C468.5,227.1,471.1,224.4,474.7,224.4z"/>
	<path class="st3" d="M425,177.9c0,3.6-2.6,6.4-6.1,6.4c-3.2,0.1-6.3-3.1-6.3-6.4c0-3.4,2.9-6.1,6.5-6.1
		C422.7,171.9,425,174.2,425,177.9z"/>
	<path class="st3" d="M382.2,141.4c-3.3,0-5.3-1.8-5.4-4.9c-0.1-3.1,2.4-5.7,5.4-5.7c2.9,0,5.4,2.4,5.5,5.2
		C387.6,139.2,385.5,141.4,382.2,141.4z"/>
	<path class="st3" d="M387.6,349.2c0.1,2.6-2.6,5.5-5.2,5.6c-2.9,0.1-5.6-2.5-5.7-5.5c-0.1-3,2-5.2,5.1-5.3
		C385.1,343.9,387.5,346.1,387.6,349.2z"/>
	<path class="st3" d="M433.9,349.2c0.1-3.2,2.4-5.6,5.5-5.5c2.8,0.1,5.3,2.8,5.3,5.5c0,2.7-2.7,5.5-5.3,5.6
		C436.4,354.9,433.8,352.3,433.9,349.2z"/>
	<path class="st3" d="M438.4,196.8c3,0.1,5.3,2.4,5.4,5.4c0,3.2-2.3,5.6-5.5,5.6c-3.2,0-5.7-2.4-5.6-5.5
		C432.8,199.2,435.4,196.7,438.4,196.8z"/>
	<path class="st3" d="M377.3,283.6c-0.1-3,2.4-5.7,5.4-5.8c3.2-0.1,5.7,2.2,5.7,5.4c0,3-2.5,5.6-5.5,5.7
		C380.2,288.9,377.4,286.2,377.3,283.6z"/>
	<path class="st3" d="M420.9,152c2.9,0.1,5.3,2.5,5.2,5.3c-0.1,2.7-3.2,5.6-5.8,5.5c-3.1-0.2-5.1-2.7-4.9-6
		C415.6,153.4,417.4,151.9,420.9,152z"/>
	<path class="st3" d="M417.4,291.9c-0.1,3.3-2.4,5.5-5.5,5.4c-2.9-0.1-5.6-3-5.4-5.8c0.2-2.7,2.9-5.3,5.6-5.2
		C415.1,286.2,417.4,288.7,417.4,291.9z"/>
	<path class="st3" d="M409.1,188.3c3-0.1,5.6,2.4,5.6,5.5c0,3.1-2.1,5.3-5.2,5.4c-3.1,0.2-5.8-2.2-5.9-5.2
		C403.4,191.2,406.2,188.3,409.1,188.3z"/>
	<path class="st3" d="M444.7,136.4c-0.1,3-2.4,5.1-5.5,5.1c-3.6,0-5.3-1.9-5.2-5.6c0.1-2.9,2.6-5.2,5.5-5.1
		C442.1,130.9,444.7,133.7,444.7,136.4z"/>
	<path class="st3" d="M346.9,191.3c0,3.1-2.2,5.3-5.2,5.4c-2.8,0-5.5-2.4-5.6-5.2c-0.1-2.9,2.6-5.7,5.5-5.6
		C344.6,186,346.9,188.3,346.9,191.3z"/>
	<path class="st3" d="M485,294.3c-0.1,3.2-2.2,5.3-5.3,5.3c-3,0-5.5-2.7-5.4-5.7c0.1-2.8,2.7-5.2,5.6-5.1
		C483.1,289,485.1,291.1,485,294.3z"/>
	<path class="st3" d="M400.8,333.6c-3.3,0.1-5.4-1.8-5.4-5c-0.1-3.3,2.2-5.8,5.2-5.7c2.8,0,5.4,2.6,5.4,5.4
		C406.1,331.1,403.7,333.5,400.8,333.6z"/>
	<path class="st3" d="M415.6,132.6c0,2.8-2.3,5.1-5,5.1c-2.6,0-5.1-2.6-5.1-5.2c0-2.8,2.2-4.9,5.2-4.9
		C413.9,127.6,415.6,129.4,415.6,132.6z"/>
	<path class="st3" d="M410.6,358c-2.8,0-5.1-2.4-4.9-5.1c0.1-2.8,2.6-5.2,5.3-4.8c2.8,0.4,4.7,1.8,4.7,5
		C415.5,356.2,413.7,358,410.6,358z"/>
	<path class="st3" d="M427.8,307.5c-0.4,2.3-1.9,4.2-4.8,4.4c-2.8,0.2-5.2-2.1-5.1-4.9c0.1-3,1.7-4.7,4.7-4.9
		C425.3,301.9,427.7,304.3,427.8,307.5z"/>
	<path class="st3" d="M398.7,210.6c-0.1,3.4-2.5,5.9-5.1,5.7c-2.9-0.3-4.6-2.1-4.8-5c-0.2-2.6,2.6-5.3,5.1-5
		C396.6,206.7,398.5,208.2,398.7,210.6z"/>
	<path class="st3" d="M398.5,173.7c2.9,0,4.8,2,4.9,5.1c0.1,3.2-1.9,4.4-4.7,4.6c-2.8,0.2-5.1-2.2-5.1-4.9
		C393.6,175.8,395.7,173.7,398.5,173.7z"/>
	<path class="st3" d="M350.9,234.1c-0.1,3.1-2.6,5.4-5.2,5.3c-2.7-0.1-4.9-2.6-4.6-5.4c0.3-3,2.2-4.5,5.1-4.4
		C349,229.8,350.6,231.6,350.9,234.1z"/>
	<path class="st3" d="M394,201.4c-3-0.2-4.6-1.8-4.6-4.8c0-3,2.1-5,5.1-4.8c3.1,0.2,4.6,2.1,4.5,5.1
		C398.8,199.8,397.2,201.5,394,201.4z"/>
	<path class="st3" d="M432.5,273c0.1,3.9-2.1,6.2-5,6c-3-0.1-4.7-1.8-4.8-4.8c-0.2-2.7,2.4-5.4,5-5C430.4,269.5,432.3,271,432.5,273
		z"/>
	<path class="st3" d="M480.2,251.2c-0.1,3.1-2,4.7-4.8,4.7c-2.9,0-4.7-1.7-4.7-4.8c0-2.9,2.2-5.3,5-5
		C478.6,246.4,480.4,248,480.2,251.2z"/>
	<path class="st3" d="M431.9,288.6c-0.1,3.1-1.4,4.9-4.6,5.1c-2.8,0.1-5.4-2.1-5.2-4.8c0.3-2.7,1.6-4.8,4.8-4.8
		C430,284.2,431.5,285.9,431.9,288.6z"/>
	<path class="st3" d="M376.7,272.4c0.1,2.9-2,5.1-4.9,5.1c-3.1,0-4.7-1.8-4.8-4.8c-0.1-3,1.8-4.7,4.7-5
		C374.1,267.4,376.6,269.9,376.7,272.4z"/>
	<path class="st3" d="M444.7,212.8c0.1-3.1,2.3-5.2,5-4.8c2.9,0.4,4.6,2,4.5,5.1c-0.1,2.7-2.5,4.8-5.1,4.5
		C446.2,217.3,444.4,215.7,444.7,212.8z"/>
	<path class="st3" d="M385,222.6c-2.8-0.5-4.8-1.8-4.7-4.7c0.1-2.7,1.9-4.2,4.5-4.2c2.7,0,4.3,1.7,4.3,4.3
		C389.2,220.6,387.4,222.1,385,222.6z"/>
	<path class="st3" d="M361.6,175.1c-0.3,2.7-1.9,4.3-4.4,4.4c-2.4,0.1-4.2-1.6-4.3-3.9c-0.1-2.5,1.5-4.5,4.1-4.6
		C359.5,170.8,361.1,172.5,361.6,175.1z"/>
	<path class="st3" d="M468.1,310.2c0.1,2.9-1.6,4.4-4.1,4.4c-2.4,0-4-1.5-4-4.1c0-2.8,1.5-4.4,4.1-4.4
		C466.5,306,468,307.6,468.1,310.2z"/>
	<path class="st3" d="M421.6,278.1c-0.5,2.3-1.8,4.1-4.3,4.1c-2.8,0-4.8-1.6-4.7-4.5c0.1-2.6,1.8-4.2,4.5-4.2
		C420.1,273.5,421,275.6,421.6,278.1z"/>
	<path class="st3" d="M404.2,212c-2.7-0.3-4.2-1.7-4.2-4.5c0-2.8,1.7-4.4,4.2-4.3c2.6,0,4.3,1.7,4.2,4.4
		C408.4,210.3,406.9,211.8,404.2,212z"/>
	<path class="st3" d="M432.2,267.9c0-3.1,1.6-4.7,4.2-4.8c2.7-0.1,4.3,1.7,4.4,4.3c0.1,2.6-1.6,4.4-4.1,4.5
		C434.1,271.8,432.4,270.3,432.2,267.9z"/>
	<path class="st3" d="M448.7,321.9c-0.4,2.5-1.6,3.9-4,3.8c-2.6-0.1-4-1.6-4-4.1c0.1-2.3,1.5-3.6,4-3.6
		C447.5,318,448.4,319.6,448.7,321.9z"/>
	<path class="st3" d="M422.7,332c-2.4-0.1-3.9-1.6-3.8-4.3c0.1-2.6,1.8-3.8,4.3-3.9c2.9-0.1,4.3,1.8,4.2,4.3
		C427.3,330.5,425.7,332.1,422.7,332z"/>
	<path class="st3" d="M402.3,157.7c-0.2,2.4-1.3,3.8-4,3.9c-3,0.1-4.2-1.5-4.1-4.2c0-2.6,1.5-3.9,4.1-3.9
		C400.8,153.6,402.1,155,402.3,157.7z"/>
	<path class="st3" d="M446.2,300c-0.8,2.1-1.4,4.4-4.3,4.1c-2.6-0.2-3.9-1.8-3.8-4.4c0.1-2.6,1.9-3.7,4.1-3.6
		C444.5,296.1,445.8,297.7,446.2,300z"/>
	<path class="st3" d="M469.7,274.8c-2.4-0.3-3.8-1.8-3.9-4c-0.1-2.3,1.2-4,3.6-4.1c2.5-0.1,4.2,1.3,4.3,3.8
		C473.8,273.1,471.8,274.2,469.7,274.8z"/>
	<path class="st3" d="M347.8,214.9c-0.2-2.8,1.5-4,3.7-4c2.3,0,4.1,1.4,4.1,4.1c-0.1,2.4-1.7,3.9-3.9,3.8
		C349.4,218.8,347.5,217.7,347.8,214.9z"/>
	<path class="st3" d="M380.3,163.6c-0.1,2.8-1.4,4.1-3.8,4c-2-0.1-4-0.7-3.9-3.4c0.1-2.7,1.2-4.3,4.2-4.3
		C379.4,159.9,380.2,161.5,380.3,163.6z"/>
	<path class="st3" d="M379.1,189.2c-2.5,0-3.7-1.2-3.7-3.8c0-2.7,1.5-4,4-3.9c2.2,0.1,3.8,1.4,3.8,3.8
		C383.1,187.9,381.7,189.3,379.1,189.2z"/>
	<path class="st3" d="M436.9,282c0-2.8,1.1-4.1,3.4-4.2c2.5-0.1,4,1.1,4.1,3.5c0,2.3-1.5,4-3.8,4C438.3,285.4,436.7,284.2,436.9,282
		z"/>
	<path class="st3" d="M456.9,222.6c2.4-0.2,3.6,1.2,3.6,3.6c0,2.3-1.2,4-3.6,4c-2.3,0-3.9-1.7-3.9-3.8
		C452.9,224.3,454.1,222.4,456.9,222.6z"/>
	<path class="st3" d="M380.4,207.6c-2.4,0.1-3.4-1.3-3.4-3.8c0-2.6,1.7-3.6,3.9-3.8c2.5-0.1,3.7,1.7,3.7,3.9
		C384.6,206.4,383.1,207.7,380.4,207.6z"/>
	<path class="st3" d="M364.4,263c-2.6-0.1-3.8-1.7-3.7-3.9c0.1-2.4,1.8-3.8,4.1-3.6c2.4,0.2,3.5,1.8,3.4,4.2
		C368,262,366.7,263,364.4,263z"/>
	<path class="st3" d="M446.6,258.1c0.1,2.6-1.4,3.8-3.7,3.9c-2.4,0-3.9-1.4-3.9-3.7c0-2.3,1.6-3.8,3.8-3.9
		C445.1,254.3,446.6,255.6,446.6,258.1z"/>
	<path class="st3" d="M382.3,227.3c-0.2,2.7-1.8,4-4.1,3.8c-2.2-0.2-4-1.5-3.7-3.9c0.3-2.2,1.7-3.8,4.1-3.7
		C381,223.6,382.1,225.2,382.3,227.3z"/>
	<path class="st3" d="M409.6,278.2c-0.1,2.5-1.5,3.8-3.8,3.7c-2.3-0.1-3.9-1.6-3.8-3.9c0.1-2.3,1.6-3.8,4-3.7
		C408.3,274.4,409.7,275.7,409.6,278.2z"/>
	<path class="st3" d="M415.4,211.1c-2.2-0.1-3.8-1.1-3.9-3.6c-0.1-2.5,1.3-3.9,3.6-4c2.3-0.1,3.9,1.2,4,3.6
		C419.2,209.5,418,210.9,415.4,211.1z"/>
	<path class="st3" d="M378.7,237.9c-0.1,1.9-1,3.2-3.2,3.4c-2.3,0.2-3.4-1.1-3.6-3.1c-0.2-2.1,1.1-3.5,3.1-3.5
		C376.9,234.6,378.5,235.5,378.7,237.9z"/>
	<path class="st3" d="M449.4,247.6c0.3,2.6-1.3,3-3.3,3c-2.3,0.1-3.3-1.2-3.3-3.2c0-1.8,0.8-3.2,3-3.2
		C448.1,244.3,449.2,245.4,449.4,247.6z"/>
	<path class="st3" d="M395.1,278.2c-2.3,0.2-3.1-1.4-3.2-3.3c0-2,1.2-3.2,3.4-3.2c2.1,0.1,3.4,1,3.3,3.2
		C398.4,277,397.4,278.2,395.1,278.2z"/>
	<path class="st3" d="M426.4,207.3c1.6,0,3,0.9,3,3.1c0,2.2-1.2,3.3-3.3,3.3c-2,0.1-3.2-1-3.3-2.9
		C422.8,208.8,423.6,207.3,426.4,207.3z"/>
	<path class="st3" d="M463,241.4c-0.6,1.6-1.2,3.1-3.3,3c-2-0.1-3.2-1.3-3.1-3.1c0.1-1.7,1.2-3.1,3.2-3.1
		C461.8,238.2,462.4,239.8,463,241.4z"/>
	<path class="st3" d="M360.6,241.2c3.2,0,4.1,1.3,4,3.2c-0.1,1.9-1.3,3.1-3.3,2.9c-1.8-0.1-2.7-1.2-2.7-3.1
		C358.7,242.1,359.6,241.2,360.6,241.2z"/>
	<path class="st3" d="M370.3,218.2c-2.2,0-3.1-1.3-3.1-3.2c0-1.7,0.9-2.9,2.8-3c2.1-0.1,3.2,1.1,3.2,2.9
		C373.3,216.9,372.2,218,370.3,218.2z"/>
	<path class="st3" d="M462.1,287.6c-1.3,1.3-2,2.9-4,2.8c-2.2-0.1-2.8-1.4-2.7-3.3c0.2-1.8,1.3-2.7,3.1-2.6
		C460.4,284.6,460.9,286.4,462.1,287.6z"/>
	<path class="st3" d="M454.1,270.2c-0.1,2.1-0.9,3.3-3,3.3c-2,0-3-1.2-3.1-3c0-1.9,1.1-3,3-3.1C453,267.3,454,268.5,454.1,270.2z"/>
	<path class="st3" d="M438.4,216.9c-0.5,1.3-0.5,3-2.7,2.9c-1.9-0.1-3.2-0.8-3.2-2.8c0-2,1.2-3.1,3.1-3
		C437.2,214,438.2,215.2,438.4,216.9z"/>
	<path class="st3" d="M366.3,197.9c-0.6,1.9-1.4,3.2-3.2,3.1c-1.9-0.1-2.9-1.3-2.8-3.3c0.1-2.1,1.3-2.5,3.1-2.5
		C365.3,195.2,365.6,196.7,366.3,197.9z"/>
	<path class="st3" d="M378.6,248.9c-0.6,1.7-1.1,3.2-3.1,3.1c-1.7-0.1-2.8-1.1-2.9-2.9c-0.1-2,1.4-2.7,2.9-2.8
		C377.4,246.1,378,247.6,378.6,248.9z"/>
	<path class="st3" d="M448.7,236.3c-0.3,1.9-1.2,3.2-3,3c-1.6-0.2-2.8-1.2-2.7-3c0.1-1.7,1.1-2.7,3-2.7
		C448,233.6,448.3,235,448.7,236.3z"/>
	<path class="st3" d="M385.8,265.8c1.9-0.1,2.9,1,2.9,2.8c0,1.8-1.1,3.1-2.8,3c-1.5-0.1-2.8-1.1-2.7-3.1
		C383.3,266.8,384.1,265.9,385.8,265.8z"/>
	<path class="st3" d="M444.5,225.3c0,1.9-1.1,2.6-2.4,2.8c-1.3,0.2-2.1-0.7-2.2-2c-0.1-1.4,0.3-2.5,2-2.7
		C443.6,223.3,444,224.5,444.5,225.3z"/>
	<path class="st3" d="M366,228.6c-0.1,1.7-0.9,2.5-2.3,2.6c-1.4,0.1-2.1-0.8-2.2-2.1c-0.1-1.2,0.5-2.2,1.8-2.4
		C364.8,226.5,365.6,227.4,366,228.6z"/>
	<path class="st3" d="M381.6,259.9c-0.2,1.4-1.3,2.2-2.6,2.2c-1.5-0.1-2.1-1.2-2-2.7c0.1-1.5,1.1-2.1,2.2-2.1
		C380.6,257.4,381.7,258.2,381.6,259.9z"/>
	<path class="st3" d="M459.9,256.2c0,1.9-1,2.5-2.2,2.5c-1.4,0-2.3-0.7-2.3-2.3c0-1.4,0.9-2.1,2.1-2.1
		C459,254.3,459.8,255.3,459.9,256.2z"/>
	<linearGradient id="SVGID_3_" gradientUnits="userSpaceOnUse" x1="673.5927" y1="442.1288" x2="692.027" y2="442.1288">
		<stop  offset="0" style="stop-color:#FFFFFF"/>
		<stop  offset="1" style="stop-color:#D0D0D0"/>
	</linearGradient>
	<path class="st4" d="M673.6,442.1c0-7.1,0-7.1,7-7.1c2,0,4.1-0.1,6.1,0.6c3.9,1.2,5.5,3.4,5.3,7.3c-0.2,3.6-2.2,5.6-5.7,6
		c-1.8,0.2-3.6,0.4-5.3,0.4C673.6,449.3,673.6,449.3,673.6,442.1z"/>
	<linearGradient id="SVGID_4_" gradientUnits="userSpaceOnUse" x1="453.2443" y1="442.1297" x2="471.7485" y2="442.1297">
		<stop  offset="0" style="stop-color:#FFFFFF"/>
		<stop  offset="0.2758" style="stop-color:#FCFCFC"/>
		<stop  offset="0.4864" style="stop-color:#F2F2F2"/>
		<stop  offset="0.6755" style="stop-color:#E2E2E2"/>
		<stop  offset="0.8507" style="stop-color:#CBCBCB"/>
		<stop  offset="1" style="stop-color:#B1B1B1"/>
	</linearGradient>
	<path class="st5" d="M460.7,449.3c-7.4,0-7.4,0-7.4-6.9c0-7.4,0-7.4,7.5-7.4c2.2,0,4.4,0.1,6.4,0.7c3.4,1.1,4.8,3.5,4.6,7
		c-0.1,3.5-1.8,5.4-5.2,6.1C464.4,449.3,462.3,449.3,460.7,449.3z"/>
	<linearGradient id="SVGID_5_" gradientUnits="userSpaceOnUse" x1="181.2994" y1="450.6508" x2="204.3838" y2="450.6508">
		<stop  offset="0" style="stop-color:#FFFFFF"/>
		<stop  offset="0.5353" style="stop-color:#FDFDFD"/>
		<stop  offset="0.7282" style="stop-color:#F6F6F6"/>
		<stop  offset="0.8651" style="stop-color:#EBEBEB"/>
		<stop  offset="0.9756" style="stop-color:#DADADA"/>
		<stop  offset="1" style="stop-color:#D5D5D5"/>
	</linearGradient>
	<path class="st6" d="M181.3,450.5c0-1.5-0.1-3.1,0-4.6c0.4-6.5,4.7-10.7,11-10.9c6-0.2,10.5,3.4,11.5,9.6c0.7,4.2,0.7,8.4-0.1,12.6
		c-1.2,6.1-5.6,9.5-11.7,9.2c-6-0.3-10.1-4.3-10.7-10.4C181.2,454.1,181.4,452.3,181.3,450.5C181.3,450.5,181.3,450.5,181.3,450.5z"
		/>
	<linearGradient id="SVGID_6_" gradientUnits="userSpaceOnUse" x1="332.6148" y1="450.6512" x2="355.7155" y2="450.6512">
		<stop  offset="0" style="stop-color:#FFFFFF"/>
		<stop  offset="0.5353" style="stop-color:#FDFDFD"/>
		<stop  offset="0.7282" style="stop-color:#F6F6F6"/>
		<stop  offset="0.8651" style="stop-color:#EBEBEB"/>
		<stop  offset="0.9756" style="stop-color:#DADADA"/>
		<stop  offset="1" style="stop-color:#D5D5D5"/>
	</linearGradient>
	<path class="st7" d="M332.6,450.5c0-1.5-0.1-3.1,0-4.6c0.4-6.3,4.4-10.4,10.7-10.9c5.8-0.5,10.5,3.1,11.8,9.2
		c0.9,4.3,0.8,8.7,0,12.9c-1.2,6.2-5.9,9.7-12.1,9.2c-6-0.5-10-4.6-10.4-10.8C332.6,453.9,332.7,452.2,332.6,450.5z"/>
</g>
</svg>
