<?xml version="1.0" encoding="utf-8"?>
<!-- Generator: Adobe Illustrator 21.0.0, SVG Export Plug-In . SVG Version: 6.00 Build 0)  -->
<svg version="1.1" id="Layer_1" xmlns="http://www.w3.org/2000/svg" xmlns:xlink="http://www.w3.org/1999/xlink" x="0px" y="0px"
	 viewBox="0 0 820 600" style="enable-background:new 0 0 820 600;" xml:space="preserve">
<style type="text/css">
	.st0{fill:url(#SVGID_1_);}
</style>
<linearGradient id="SVGID_1_" gradientUnits="userSpaceOnUse" x1="55.5573" y1="-55" x2="765.5573" y2="655">
	<stop  offset="0" style="stop-color:#FFFFFF"/>
	<stop  offset="0.2636" style="stop-color:#FCFCFC"/>
	<stop  offset="0.4492" style="stop-color:#F3F3F3"/>
	<stop  offset="0.6104" style="stop-color:#E3E3E3"/>
	<stop  offset="0.7012" style="stop-color:#D7D7D7"/>
</linearGradient>
<rect x="0.6" class="st0" width="820" height="600"/>
<path d="M397.9,242c2.4,1.3,4.8,2.6,7.3,4c7.6,4.1,9.1,7.6,6.5,15.9c-4.8,15.4-9.8,30.7-14.7,46c-3.9,12.2-7.8,24.3-11.7,36.4
	c-0.2,0.7-0.4,1.4-0.2,2.3c0.6-0.6,1.1-1.2,1.7-1.8c23.2-26,46.3-51.9,69.5-77.9c1.9-2.1,3.9-4,6.1-5.7c3-2.3,6.5-2.9,9.7-0.9
	c5.2,3.4,10.3,6.9,15,11c3.5,3.1,4.1,7.5,2.5,12.2c-5,15-9.9,30-14.8,45c-0.3,0.8-0.5,1.6-0.4,2.8c0.6-0.5,1.2-1,1.8-1.5
	c19.3-18.1,38.7-36.1,58-54.3c0.7-0.7,1.2-1.6,1.7-2.5c0.6-1,1-2.2,1.6-3.2c1.9-3,4.6-4.3,7.5-2.5c5.2,3.2,10.3,6.7,14.9,10.7
	c3.2,2.8,2.8,7,1.6,10.8c-2.3,7.1-4.8,14.2-7.1,21.3c-2.5,7.9-4.9,15.8-7.3,23.7c0.2,0.2,0.5,0.5,0.7,0.7c0.4-0.6,0.7-1.4,1.2-1.9
	c20.8-21.9,41.6-43.7,62.4-65.5c4.3-4.6,9.3-7.8,15.8-7.8c3.7,0,7.1,1.1,10.1,3.3c3.2,2.3,6.3,4.7,9.4,7c0.9,0.7,1.7,1.4,2.5,2.2
	c5.4,5.3,6.2,10.8,2.5,17.3c-3.7,6.6-7.7,13.1-11.3,19.8c-5.4,10-9.8,20.5-11.9,31.7c-0.7,3.8-0.8,7.8-0.3,11.6
	c1.1,7.5,7.4,11.2,14.7,9.1c6.3-1.8,11.2-5.7,15.6-10.3c13.4-14.2,20.7-31.3,23.4-50.4c0.4-3.1,0.4-6.4,0.5-9.6
	c0.1-1.6-0.6-2.6-1.9-3.5c-4.2-2.8-8.4-5.6-12.5-8.5c-3.9-2.7-4-4.9-0.1-7.4c4.5-2.9,9.1-5.6,13.8-8.2c4.3-2.4,9.2-3.1,13.9-1.9
	c2.4,0.6,4.8,2.2,6.6,4c5.7,5.6,8.1,12.9,8.3,20.7c0.5,29.9-8.7,56.3-29.2,78.3c-10.3,11-23.2,17.7-38.3,19.5
	c-7.9,1-15.7,0.1-23.1-2.6c-11.6-4.2-17.4-13.2-19.1-24.9c-2.7-18.8,1.9-36.3,10.7-52.8c2-3.8,4.1-7.6,6.1-11.3
	c-0.3-0.3-0.6-0.6-0.9-0.8c-0.4,0.7-0.6,1.5-1.2,2.1c-26.1,28.1-52.3,56.3-78.4,84.4c-5,5.4-8.1,5.8-14.2,1.8
	c-3.7-2.4-7.4-5.1-11-7.7c-3.4-2.4-4.7-5.7-3.4-9.6c2.1-5.9,4.3-11.8,6.6-17.7c3.1-7.9,6.3-15.7,9.5-23.5c0.3-0.7,0.5-1.4,0.5-2.4
	c-1,0.9-2,1.8-2.9,2.7c-19.2,18.3-38.3,36.5-57.5,54.7c-1.7,1.6-3.5,3.2-5.5,4.7c-2.3,1.7-4.9,1.9-7.4,0.3c-5-3.3-10-6.7-14.9-10.1
	c-3.2-2.2-3.3-5.5-2.4-8.6c2.2-7.6,4.7-15.1,7.2-22.6c6.1-18.2,12.2-36.3,18.3-54.4c0.2-0.6,0.4-1.2,0.7-2.3
	c-0.8,0.7-1.2,1.1-1.6,1.5c-26.1,30.2-52.2,60.4-78.3,90.6c-1.5,1.7-3.2,3.4-4.9,4.9c-2.7,2.4-6.1,3.1-9.1,1.2
	c-5.6-3.5-11.1-7.2-16.4-11.2c-3.3-2.5-3.8-6.5-2.8-10.3c2.7-9.7,5.6-19.3,8.7-28.9c9.2-29,18.6-58,27.8-87.1
	c0.2-0.7,0.4-1.5,0.7-2.6c-1.3,0-2.4,0-3.5,0c-46.6,0-93.1-0.1-139.7,0.1c-6.2,0-10.1-2.2-12.5-7.8c-1.8-4.1-3.9-8-5.9-12.1
	c-0.5-1.1-1-2.2-1.2-3.4c-0.3-1.8,0.4-3,2.4-3.1c0.9-0.1,1.8-0.1,2.6-0.1c109.8,0,219.7,0,329.5-0.1c5.2,0,8.5,2,10.7,6.5
	c2.2,4.7,4.6,9.3,6.9,14c0.4,0.8,0.6,1.6,0.9,2.5c0.5,1.8-0.2,3-2.1,3.3c-1.2,0.2-2.4,0.2-3.6,0.2c-56.2,0-112.3,0-168.5,0
	c-0.9,0-1.8,0-2.7,0C398,241.7,397.9,241.8,397.9,242z"/>
<path d="M150.7,331.9c3.2-2.8,6.4-5.5,9.5-8.3c16.7-14.5,33.3-29,50-43.5c0.8-0.7,1.5-1.7,2-2.6c2.1-4.3,4-8.7,6-13
	c2.5-5.5,6-6.7,11.1-3.5c3.4,2.1,6.6,4.5,9.7,7c3.7,2.8,5,6.8,3.6,11.1c-2.5,8.2-5,16.3-8,24.3c-5.2,13.7-8.9,27.8-12.6,41.9
	c-0.1,0.4-0.1,0.8-0.2,1.2c0.2,0.2,0.5,0.4,0.7,0.6c0.4-0.7,0.8-1.5,1.4-2.1c22.9-25.3,45.7-50.5,68.6-75.7c1.7-1.8,3.4-3.7,5.2-5.3
	c5.7-5.1,12.1-6,18.9-2.6c3.7,1.8,7.3,4,10.8,6.2c5.6,3.5,6.6,9.1,6.7,15c0.1,7-0.2,14.1-0.2,21.1c-0.2,19.4-0.5,38.7-0.6,58.1
	c0,5.5-2.2,9.5-6.9,12.2c-5.4,3-10.7,6.1-16.1,9.1c-4,2.2-8.1,2.6-12.4,0.7c-3.7-1.6-7.6-3-11.3-4.7c-6-2.8-8.5-7.9-8.8-14.3
	c-0.2-4.1-0.1-8.2,0-12.2c0.1-4.9,2.2-6.3,6.9-4.6c4.2,1.6,8.2,3.5,12.4,5.2c0.9,0.4,1.9,0.8,3.3,1.4c0-24.2,0-48.2,0-72.1
	c-0.3,0.3-0.7,0.6-1.1,1c-21.6,24.4-43.2,48.9-64.8,73.4c-6,6.8-12,13.7-18.1,20.5c-1.2,1.3-2.5,2.5-3.9,3.5
	c-3.2,2.3-6.7,2.6-10.1,0.3c-4.4-3-8.8-6.1-13.2-9.2c-4.2-3.1-5.8-7.3-4.3-12.2c2.5-8.1,5.3-16.2,8.1-24.2c1-3,2.3-6,3.1-9.2
	c-0.6,0.5-1.2,1-1.8,1.5c-18.8,17.4-37.5,34.8-56.3,52.2c-3.5,3.3-5.3,3.5-9.3,0.9c-4.9-3.2-9.7-6.5-14.5-9.8
	c-3.3-2.3-4.3-5.3-2.8-10c2.7-8.5,5.6-17,8.5-25.4c5.2-15.1,10.3-30.2,15.6-45.2c0.7-2,0.2-2.9-1.4-4c-4.2-2.7-8.2-5.5-12.3-8.3
	c-3.2-2.2-3.4-4.5-0.1-6.5c6.5-3.9,13.1-7.7,19.8-11.2c3.5-1.9,7.1-1.2,10.4,1c4,2.8,8.1,5.5,12.1,8.2c5.1,3.6,6,6.3,3.8,12.4
	c-4.3,12.2-8.6,24.4-12.8,36.6c-1.5,4.3-3,8.7-4.6,13C150.5,331.7,150.6,331.8,150.7,331.9z"/>
</svg>
